<svg width="46" height="46" viewBox="0 0 46 46" fill="none" xmlns="http://www.w3.org/2000/svg">
<g clip-path="url(#clip0_1_187)">
<path d="M43.0763 17.7647H42.9788V10.6796C42.9663 9.05404 41.6513 7.73913 40.0258 7.72656H6.07169C4.44613 7.73913 3.13121 9.05404 3.11865 10.6796V17.7647H2.92373C2.15168 17.7586 1.40895 18.0609 0.859989 18.6041C0.311409 19.1474 0.00190447 19.8871 1.00469e-06 20.6591V34.693C-0.000760383 35.2363 0.431327 35.6817 0.974577 35.6969H1.94915V37.3537C1.95068 37.8912 2.38619 38.3267 2.92373 38.3282H9.35593C9.89347 38.3267 10.329 37.8912 10.3305 37.3537V35.6969H35.572V37.3537C35.5736 37.8912 36.0091 38.3267 36.5466 38.3282H42.9788C43.5164 38.3267 43.9519 37.8912 43.9534 37.3537V35.6969H45.0254C45.5687 35.6817 46.0008 35.2363 46 34.693V20.6591C45.9981 19.8871 45.6886 19.1474 45.14 18.6041C44.5911 18.0609 43.8483 17.7586 43.0763 17.7647ZM5.0678 10.6796C5.07732 10.1291 5.5212 9.68523 6.07169 9.67571H40.0357C40.5846 9.68866 41.0266 10.1306 41.0396 10.6796V17.7647H39.4802C38.7078 17.7586 37.9651 18.0609 37.4165 18.6041C36.8675 19.1474 36.558 19.8871 36.5565 20.6591V20.9808H9.45339V20.6591C9.44996 19.8874 9.14008 19.1489 8.5915 18.606C8.04292 18.0632 7.30133 17.7605 6.52966 17.7647H5.0678V10.6796ZM9.45339 22.9299H36.5466V26.146H9.45339V22.9299ZM8.38136 36.3791H3.89831V35.6969H8.38136V36.3791ZM42.0042 36.3791H37.5212V35.6969H42.0042V36.3791ZM44.0508 33.7477H1.94915V20.6591C1.95106 20.404 2.05537 20.16 2.23848 19.9826C2.42159 19.8048 2.66866 19.7081 2.92373 19.7138H6.52966C6.78473 19.7081 7.0318 19.8048 7.21491 19.9826C7.39803 20.16 7.50234 20.404 7.50424 20.6591V27.0913C7.50348 27.6346 7.93556 28.08 8.47882 28.0952H37.5212C38.0644 28.08 38.4965 27.6346 38.4958 27.0913V20.6591C38.4977 20.404 38.602 20.16 38.7851 19.9826C38.9682 19.8048 39.2153 19.7081 39.4703 19.7138H43.0763C43.3313 19.7081 43.5784 19.8048 43.7615 19.9826C43.9446 20.16 44.0489 20.404 44.0508 20.6591V33.7477Z" fill="url(#paint0_linear_1_187)"/>
</g>
<defs>
<linearGradient id="paint0_linear_1_187" x1="-3.68604" y1="10.8906" x2="26.1833" y2="58.2574" gradientUnits="userSpaceOnUse">
<stop stop-color="#003A92"/>
<stop offset="1" stop-color="#74A0E3"/>
</linearGradient>
<clipPath id="clip0_1_187">
<rect width="46" height="46" fill="white"/>
</clipPath>
</defs>
</svg>
