<svg width="46" height="46" viewBox="0 0 46 46" fill="none" xmlns="http://www.w3.org/2000/svg">
<path d="M1.4375 36.4426C1.43752 36.5933 1.48492 36.7402 1.573 36.8625C1.66108 36.9848 1.78538 37.0764 1.92832 37.1242C2.10315 37.1827 4.91445 38.0999 8.95014 38.0999C11.3155 38.1051 13.67 37.7798 15.9453 37.1335C20.0586 35.9543 22.6018 33.7147 24.0856 31.8645C24.2747 31.9738 24.4735 32.0655 24.6794 32.1385C26.6067 35.4088 31.2591 37.7387 36.6089 38.0921C36.6246 38.0932 36.6404 38.0938 36.6562 38.0938H40.3736C40.5433 38.5731 40.877 38.977 41.3156 39.2342C41.7543 39.4914 42.2697 39.5853 42.7709 39.4993C43.2721 39.4133 43.7267 39.153 44.0546 38.7643C44.3824 38.3756 44.5623 37.8835 44.5625 37.375V34.5C44.5623 33.9915 44.3824 33.4994 44.0546 33.1107C43.7267 32.722 43.2721 32.4617 42.7709 32.3757C42.2697 32.2897 41.7543 32.3836 41.3156 32.6408C40.877 32.898 40.5433 33.3019 40.3736 33.7813H36.6819C33.285 33.5352 30.288 32.3541 28.8717 30.7305C29.2611 30.1434 29.4687 29.4545 29.4687 28.75C29.4687 28.0455 29.2611 27.3566 28.8717 26.7695C30.288 25.1459 33.285 23.9648 36.6819 23.7188H40.3736C40.5433 24.1981 40.877 24.602 41.3156 24.8592C41.7543 25.1164 42.2697 25.2103 42.7709 25.1243C43.2721 25.0383 43.7267 24.778 44.0546 24.3893C44.3824 24.0006 44.5623 23.5085 44.5625 23V20.125C44.5623 19.6165 44.3824 19.1244 44.0546 18.7357C43.7267 18.347 43.2721 18.0867 42.7709 18.0007C42.2697 17.9147 41.7543 18.0086 41.3156 18.2658C40.877 18.523 40.5433 18.9269 40.3736 19.4063H36.6562C36.6404 19.4063 36.6246 19.4068 36.6089 19.4079C31.2591 19.7613 26.6067 22.0909 24.6794 25.3615C24.4735 25.4345 24.2747 25.5262 24.0856 25.6355C22.6018 23.7853 20.0586 21.5457 15.9453 20.3665C15.3623 20.1994 14.7872 20.057 14.2198 19.9393C14.3516 19.2629 14.5547 18.6024 14.8257 17.9688H17.25C18.965 17.9668 20.6093 17.2847 21.822 16.072C23.0347 14.8593 23.7168 13.215 23.7188 11.5V7.1875C23.7188 6.99688 23.643 6.81406 23.5082 6.67927C23.3734 6.54448 23.1906 6.46875 23 6.46875H20.125C18.9366 6.46988 17.7715 6.79807 16.7573 7.41736C15.7431 8.03666 14.9189 8.92317 14.375 9.97975C13.8311 8.92317 13.0069 8.03666 11.9927 7.41736C10.9785 6.79807 9.81335 6.46988 8.625 6.46875H5.75C5.55938 6.46875 5.37656 6.54448 5.24177 6.67927C5.10698 6.81406 5.03125 6.99688 5.03125 7.1875V11.5C5.03318 13.215 5.71532 14.8593 6.92803 16.072C8.14074 17.2847 9.78497 17.9668 11.5 17.9688H13.2789C13.0772 18.528 12.9186 19.102 12.8045 19.6855C6.80297 18.785 2.15508 20.3 1.92859 20.3758C1.78567 20.4237 1.6614 20.5152 1.57335 20.6375C1.4853 20.7598 1.43792 20.9067 1.43792 21.0574C1.43792 21.2082 1.4853 21.3551 1.57335 21.4774C1.6614 21.5997 1.78567 21.6912 1.92859 21.739L12.9952 25.4406C13.3256 26.7184 13.8199 27.9482 14.4657 29.0992C14.5592 29.2641 14.7141 29.3854 14.8965 29.4367C15.079 29.488 15.2744 29.4651 15.4401 29.3731C15.6058 29.281 15.7284 29.1272 15.7813 28.9452C15.8341 28.7632 15.8129 28.5676 15.7223 28.4011C15.2926 27.633 14.9337 26.8273 14.65 25.994L22.2875 28.5485C22.2838 28.6153 22.2815 28.6824 22.2815 28.7502C22.2815 28.8179 22.2838 28.8849 22.2875 28.9519L1.92895 35.7611C1.7859 35.8088 1.66148 35.9003 1.57328 36.0226C1.48508 36.1449 1.43758 36.2918 1.4375 36.4426ZM41.6875 34.5C41.6875 34.3094 41.7632 34.1266 41.898 33.9918C42.0328 33.857 42.2156 33.7813 42.4062 33.7813C42.5969 33.7813 42.7797 33.857 42.9145 33.9918C43.0493 34.1266 43.125 34.3094 43.125 34.5V37.375C43.125 37.5656 43.0493 37.7484 42.9145 37.8832C42.7797 38.018 42.5969 38.0938 42.4062 38.0938C42.2156 38.0938 42.0328 38.018 41.898 37.8832C41.7632 37.7484 41.6875 37.5656 41.6875 37.375V34.5ZM41.6875 20.125C41.6875 19.9344 41.7632 19.7516 41.898 19.6168C42.0328 19.482 42.2156 19.4063 42.4062 19.4063C42.5969 19.4063 42.7797 19.482 42.9145 19.6168C43.0493 19.7516 43.125 19.9344 43.125 20.125V23C43.125 23.1906 43.0493 23.3734 42.9145 23.5082C42.7797 23.643 42.5969 23.7188 42.4062 23.7188C42.2156 23.7188 42.0328 23.643 41.898 23.5082C41.7632 23.3734 41.6875 23.1906 41.6875 23V20.125ZM15.0938 12.9375C15.0952 11.6036 15.6258 10.3247 16.569 9.38152C17.5122 8.43831 18.7911 7.90775 20.125 7.90625H22.2812V11.5C22.2798 12.8339 21.7492 14.1128 20.806 15.056C19.8628 15.9992 18.5839 16.5298 17.25 16.5313H15.9377L19.2332 12.6866C19.3573 12.5418 19.4188 12.3537 19.4042 12.1637C19.3896 11.9736 19.3 11.7971 19.1553 11.673C19.0106 11.549 18.8225 11.4875 18.6324 11.5021C18.4423 11.5167 18.2659 11.6062 18.1418 11.7509L15.0938 15.307V12.9375ZM4.81167 21.1877C7.39125 20.7613 10.0212 20.7362 12.6085 21.1133C12.5392 22.0158 12.5641 22.923 12.6828 23.8204L4.81167 21.1877ZM38.8125 35.2188H40.25V36.6563H38.8125V35.2188ZM36.6054 35.217C36.6223 35.2181 36.6393 35.2188 36.6562 35.2188H37.375V36.6563H36.6802C32.3128 36.3626 28.4912 34.6874 26.5279 32.2832C27.0015 32.1958 27.4526 32.0136 27.854 31.7475C29.5592 33.6375 32.8314 34.9492 36.6054 35.217ZM38.8125 20.8438H40.25V22.2813H38.8125V20.8438ZM36.6802 20.8438H37.375V22.2813H36.6562C36.6393 22.2813 36.6223 22.2819 36.6054 22.283C32.8314 22.5511 29.5592 23.8623 27.8546 25.7525C27.4532 25.4864 27.0021 25.3042 26.5285 25.2168C28.4912 22.8126 32.3128 21.1375 36.6802 20.8438ZM25.875 26.5938C26.3015 26.5938 26.7184 26.7202 27.0729 26.9571C27.4275 27.1941 27.7039 27.5308 27.8671 27.9248C28.0303 28.3188 28.073 28.7524 27.9898 29.1707C27.9066 29.5889 27.7013 29.9731 27.3997 30.2747C27.0981 30.5763 26.7139 30.7816 26.2957 30.8648C25.8774 30.948 25.4438 30.9053 25.0498 30.7421C24.6558 30.5789 24.3191 30.3025 24.0821 29.948C23.8452 29.5934 23.7188 29.1765 23.7188 28.75C23.7194 28.1783 23.9468 27.6303 24.351 27.226C24.7553 26.8218 25.3033 26.5944 25.875 26.5938ZM13.6562 15.307L10.6082 11.7509C10.4841 11.6062 10.3077 11.5167 10.1176 11.5021C9.92751 11.4875 9.73942 11.549 9.59468 11.673C9.44995 11.7971 9.36044 11.9736 9.34583 12.1637C9.33122 12.3537 9.39272 12.5418 9.51679 12.6866L12.8123 16.5313H11.5C10.1661 16.5298 8.88724 15.9992 7.94402 15.056C7.00081 14.1128 6.47025 12.8339 6.46875 11.5V7.90625H8.625C9.95891 7.90775 11.2378 8.43831 12.181 9.38152C13.1242 10.3247 13.6548 11.6036 13.6562 12.9375V15.307ZM14.2133 24.3322C14.0257 23.3569 13.9648 22.3614 14.0319 21.3705C14.5313 21.4771 15.0376 21.6018 15.549 21.7484C19.3474 22.8372 21.6683 24.9019 23.006 26.5882C22.8717 26.7661 22.7542 26.9561 22.6551 27.1557L14.2133 24.3322ZM22.6554 30.3443C22.7546 30.5439 22.8721 30.7339 23.0064 30.9118C21.6683 32.5984 19.3474 34.6628 15.5493 35.7516C11.2255 36.9915 7.24437 36.7109 4.81733 36.3105L22.6554 30.3443ZM25.1562 28.75C25.1562 28.6078 25.1984 28.4689 25.2774 28.3507C25.3564 28.2325 25.4686 28.1404 25.5999 28.086C25.7313 28.0316 25.8758 28.0173 26.0152 28.0451C26.1546 28.0728 26.2827 28.1412 26.3832 28.2418C26.4838 28.3423 26.5522 28.4704 26.5799 28.6098C26.6077 28.7492 26.5934 28.8937 26.539 29.0251C26.4846 29.1564 26.3925 29.2686 26.2743 29.3476C26.1561 29.4266 26.0172 29.4688 25.875 29.4688C25.6844 29.4688 25.5016 29.393 25.3668 29.2582C25.232 29.1234 25.1562 28.9406 25.1562 28.75Z" fill="url(#paint0_linear_1_122)"/>
<defs>
<linearGradient id="paint0_linear_1_122" x1="-2.01816" y1="9.88711" x2="31.9959" y2="56.6929" gradientUnits="userSpaceOnUse">
<stop stop-color="#003A92"/>
<stop offset="1" stop-color="#74A0E3"/>
</linearGradient>
</defs>
</svg>
