<svg width="45" height="45" viewBox="0 0 45 45" fill="none" xmlns="http://www.w3.org/2000/svg">
<circle cx="22.3186" cy="22.3186" r="22.3186" fill="#EDFFEE"/>
<g opacity="0.22" style="mix-blend-mode:multiply">
<path d="M10.87 37.92L11.7313 36.8658L12.5791 37.92L13.4403 36.8658L14.2884 37.92L15.1494 36.8658L15.9974 37.92L16.8585 36.8658L17.7065 37.92L18.5677 36.8658L19.4156 37.92L20.2768 36.8658L21.1247 37.92L21.9859 36.8658L22.8338 37.92L23.695 36.8658L24.543 37.92L25.404 36.8658L26.2521 37.92L27.1131 36.8658L27.9612 37.92L28.8224 36.8658L29.6702 37.92L30.5314 36.8658L31.377 37.9171V12.6323H10.8683V37.92H10.87Z" fill="#3C6F7A"/>
</g>
<path d="M8.92363 35.9357L9.78485 34.8815L10.6329 35.9357L11.4939 34.8815L12.342 35.9357L13.2032 34.8815L14.051 35.9357L14.9123 34.8815L15.7601 35.9357L16.6213 34.8815L17.4692 35.9357L18.3304 34.8815L19.1783 35.9357L20.0395 34.8815L20.8875 35.9357L21.7486 34.8815L22.5966 35.9357L23.4578 34.8815L24.3057 35.9357L25.1669 34.8815L26.0147 35.9357L26.876 34.8815L27.7238 35.9357L28.585 34.8815L29.4306 35.9328V10.222H8.92188V35.9357H8.92363Z" fill="#F7F7F7"/>
<path d="M18.169 19.0163H11.3524C11.2556 19.0163 11.1627 18.9779 11.0942 18.9095C11.0258 18.8411 10.9873 18.7484 10.9873 18.6517C10.9873 18.6038 10.9967 18.5564 11.015 18.5121C11.0334 18.4679 11.0603 18.4276 11.0942 18.3938C11.1281 18.3599 11.1683 18.333 11.2126 18.3147C11.2569 18.2964 11.3044 18.2869 11.3524 18.2869H18.169C18.217 18.2869 18.2645 18.2964 18.3088 18.3147C18.3531 18.333 18.3933 18.3599 18.4272 18.3938C18.4611 18.4276 18.488 18.4679 18.5063 18.5121C18.5247 18.5564 18.5341 18.6038 18.5341 18.6517C18.5341 18.7484 18.4956 18.8411 18.4272 18.9095C18.3587 18.9779 18.2658 19.0163 18.169 19.0163Z" fill="#C4C4C4"/>
<path d="M26.8594 19.0163H24.2985C24.2505 19.0163 24.203 19.0069 24.1587 18.9886C24.1144 18.9703 24.0741 18.9434 24.0402 18.9095C24.0063 18.8757 23.9794 18.8355 23.961 18.7912C23.9427 18.747 23.9332 18.6996 23.9332 18.6517C23.9332 18.5549 23.9717 18.4622 24.0402 18.3938C24.1087 18.3254 24.2016 18.2869 24.2985 18.2869H26.8594C26.9074 18.2869 26.9549 18.2964 26.9992 18.3147C27.0435 18.333 27.0837 18.3599 27.1177 18.3938C27.1516 18.4276 27.1784 18.4679 27.1968 18.5121C27.2151 18.5564 27.2245 18.6038 27.2245 18.6517C27.2245 18.7484 27.1861 18.8411 27.1176 18.9095C27.0491 18.9779 26.9563 19.0163 26.8594 19.0163Z" fill="#C4C4C4"/>
<path d="M26.8594 20.628H24.2985C24.2016 20.628 24.1087 20.5895 24.0402 20.5211C23.9717 20.4527 23.9332 20.3599 23.9332 20.2632C23.9332 20.2153 23.9427 20.1679 23.961 20.1236C23.9794 20.0794 24.0063 20.0392 24.0402 20.0053C24.0741 19.9715 24.1144 19.9446 24.1587 19.9263C24.203 19.908 24.2505 19.8986 24.2985 19.8986H26.8594C26.9563 19.8986 27.0491 19.937 27.1176 20.0054C27.1861 20.0738 27.2245 20.1665 27.2245 20.2632C27.2245 20.3111 27.2151 20.3585 27.1968 20.4028C27.1784 20.447 27.1516 20.4872 27.1177 20.5211C27.0837 20.555 27.0435 20.5819 26.9992 20.6002C26.9549 20.6185 26.9074 20.628 26.8594 20.628Z" fill="#C4C4C4"/>
<path d="M26.8595 22.2398H24.2985C24.2018 22.2398 24.109 22.2015 24.0405 22.1333C23.9721 22.0652 23.9335 21.9726 23.9332 21.876C23.9332 21.7793 23.9717 21.6865 24.0402 21.6181C24.1087 21.5497 24.2016 21.5113 24.2985 21.5113H26.8595C26.9562 21.5115 27.0489 21.55 27.1172 21.6184C27.1856 21.6868 27.2239 21.7794 27.2239 21.876C27.2236 21.9725 27.1852 22.0649 27.1169 22.133C27.0486 22.2012 26.956 22.2396 26.8595 22.2398Z" fill="#C4C4C4"/>
<path d="M26.8594 25.4636H24.2985C24.2505 25.4637 24.203 25.4543 24.1587 25.4359C24.1144 25.4176 24.0741 25.3908 24.0402 25.3569C24.0063 25.3231 23.9794 25.2829 23.961 25.2386C23.9427 25.1944 23.9332 25.147 23.9332 25.0991C23.9332 25.0023 23.9717 24.9096 24.0402 24.8411C24.1087 24.7727 24.2016 24.7343 24.2985 24.7343H26.8594C26.9074 24.7343 26.9549 24.7438 26.9992 24.7621C27.0435 24.7804 27.0837 24.8073 27.1177 24.8412C27.1516 24.875 27.1784 24.9152 27.1968 24.9595C27.2151 25.0037 27.2245 25.0512 27.2245 25.0991C27.2245 25.1958 27.1861 25.2885 27.1176 25.3569C27.0491 25.4252 26.9563 25.4636 26.8594 25.4636Z" fill="#C4C4C4"/>
<path d="M26.8594 27.0756H24.2985C24.2016 27.0756 24.1087 27.0372 24.0402 26.9688C23.9717 26.9004 23.9332 26.8076 23.9332 26.7109C23.9332 26.663 23.9427 26.6156 23.961 26.5713C23.9794 26.5271 24.0063 26.4869 24.0402 26.453C24.0741 26.4192 24.1144 26.3923 24.1587 26.374C24.203 26.3557 24.2505 26.3463 24.2985 26.3463H26.8594C26.9563 26.3463 27.0491 26.3847 27.1176 26.4531C27.1861 26.5215 27.2245 26.6142 27.2245 26.7109C27.2245 26.7588 27.2151 26.8062 27.1968 26.8505C27.1784 26.8947 27.1516 26.9349 27.1177 26.9688C27.0837 27.0027 27.0435 27.0295 26.9992 27.0479C26.9549 27.0662 26.9074 27.0756 26.8594 27.0756Z" fill="#C4C4C4"/>
<path d="M15.5278 20.628H11.3527C11.3048 20.628 11.2573 20.6185 11.213 20.6002C11.1687 20.5819 11.1284 20.555 11.0945 20.5211C11.0606 20.4872 11.0337 20.447 11.0154 20.4028C10.9971 20.3585 10.9876 20.3111 10.9877 20.2632C10.9877 20.1665 11.0261 20.0738 11.0946 20.0054C11.1631 19.937 11.2559 19.8986 11.3527 19.8986H15.5278C15.6246 19.8986 15.7174 19.937 15.7859 20.0054C15.8544 20.0738 15.8928 20.1665 15.8928 20.2632C15.8929 20.3111 15.8834 20.3585 15.8651 20.4028C15.8468 20.447 15.8199 20.4872 15.786 20.5211C15.7521 20.555 15.7118 20.5819 15.6675 20.6002C15.6232 20.6185 15.5757 20.628 15.5278 20.628Z" fill="#C4C4C4"/>
<path d="M16.5332 22.2397H11.3527C11.2561 22.2397 11.1633 22.2015 11.0949 22.1333C11.0265 22.0651 10.9879 21.9726 10.9877 21.876C10.9876 21.8282 10.9971 21.7807 11.0154 21.7365C11.0337 21.6922 11.0606 21.652 11.0945 21.6181C11.1284 21.5843 11.1687 21.5574 11.213 21.5391C11.2573 21.5207 11.3048 21.5113 11.3527 21.5113H16.5332C16.63 21.5114 16.7228 21.5499 16.7913 21.6182C16.8597 21.6866 16.8981 21.7794 16.8981 21.876C16.8979 21.9726 16.8593 22.065 16.7909 22.1332C16.7225 22.2014 16.6299 22.2397 16.5332 22.2397Z" fill="#C4C4C4"/>
<path d="M17.0508 25.4636H11.3527C11.2559 25.4636 11.1631 25.4252 11.0946 25.3569C11.0261 25.2885 10.9877 25.1958 10.9877 25.0991C10.9876 25.0512 10.9971 25.0037 11.0154 24.9595C11.0337 24.9152 11.0606 24.875 11.0945 24.8412C11.1284 24.8073 11.1687 24.7804 11.213 24.7621C11.2573 24.7438 11.3048 24.7343 11.3527 24.7343H17.0508C17.1476 24.7343 17.2405 24.7727 17.309 24.8411C17.3775 24.9096 17.416 25.0023 17.416 25.0991C17.416 25.147 17.4066 25.1944 17.3882 25.2386C17.3699 25.2829 17.343 25.3231 17.309 25.3569C17.2751 25.3908 17.2348 25.4176 17.1905 25.4359C17.1462 25.4543 17.0987 25.4637 17.0508 25.4636Z" fill="#C4C4C4"/>
<path d="M17.7208 27.0756H11.3527C11.3048 27.0756 11.2573 27.0662 11.213 27.0479C11.1687 27.0295 11.1284 27.0027 11.0945 26.9688C11.0606 26.9349 11.0337 26.8947 11.0154 26.8505C10.9971 26.8062 10.9876 26.7588 10.9877 26.7109C10.9877 26.6142 11.0261 26.5215 11.0946 26.4531C11.1631 26.3847 11.2559 26.3463 11.3527 26.3463H17.7208C17.8177 26.3463 17.9105 26.3847 17.979 26.4531C18.0475 26.5215 18.0859 26.6142 18.0859 26.7109C18.0859 26.7588 18.0765 26.8062 18.0582 26.8505C18.0398 26.8947 18.013 26.9349 17.979 26.9688C17.9451 27.0027 17.9049 27.0295 17.8606 27.0479C17.8163 27.0662 17.7688 27.0756 17.7208 27.0756Z" fill="#C4C4C4"/>
<path d="M26.8594 14.1376H24.2985C24.2505 14.1376 24.203 14.1282 24.1587 14.1099C24.1144 14.0916 24.0741 14.0647 24.0402 14.0309C24.0063 13.997 23.9794 13.9568 23.961 13.9126C23.9427 13.8683 23.9332 13.8209 23.9332 13.773C23.9332 13.6763 23.9717 13.5835 24.0402 13.5151C24.1087 13.4467 24.2016 13.4083 24.2985 13.4083H26.8594C26.9074 13.4083 26.9549 13.4177 26.9992 13.436C27.0435 13.4544 27.0837 13.4812 27.1177 13.5151C27.1516 13.549 27.1784 13.5892 27.1968 13.6334C27.2151 13.6777 27.2245 13.7251 27.2245 13.773C27.2245 13.8697 27.1861 13.9624 27.1176 14.0308C27.0491 14.0992 26.9563 14.1376 26.8594 14.1376Z" fill="#C4C4C4"/>
<path d="M26.8595 15.7496H24.2985C24.2505 15.7496 24.203 15.7402 24.1586 15.7218C24.1143 15.7035 24.074 15.6766 24.0401 15.6427C24.0062 15.6088 23.9793 15.5685 23.9609 15.5242C23.9426 15.4799 23.9332 15.4325 23.9332 15.3845C23.9332 15.3366 23.9427 15.2892 23.961 15.245C23.9794 15.2007 24.0063 15.1605 24.0402 15.1267C24.0741 15.0928 24.1144 15.066 24.1587 15.0477C24.203 15.0293 24.2505 15.0199 24.2985 15.02H26.8595C26.9562 15.0201 27.0489 15.0586 27.1172 15.127C27.1855 15.1953 27.2239 15.288 27.2239 15.3845C27.224 15.4812 27.1857 15.574 27.1174 15.6424C27.049 15.7109 26.9563 15.7494 26.8595 15.7496Z" fill="#C4C4C4"/>
<path d="M17.0508 14.1376H11.3527C11.2559 14.1376 11.1631 14.0992 11.0946 14.0308C11.0261 13.9624 10.9877 13.8697 10.9877 13.773C10.9876 13.7251 10.9971 13.6777 11.0154 13.6334C11.0337 13.5892 11.0606 13.549 11.0945 13.5151C11.1284 13.4812 11.1687 13.4544 11.213 13.436C11.2573 13.4177 11.3048 13.4083 11.3527 13.4083H17.0508C17.1476 13.4083 17.2405 13.4467 17.309 13.5151C17.3775 13.5835 17.416 13.6763 17.416 13.773C17.416 13.8209 17.4066 13.8683 17.3882 13.9126C17.3699 13.9568 17.343 13.997 17.309 14.0309C17.2751 14.0647 17.2348 14.0916 17.1905 14.1099C17.1462 14.1282 17.0987 14.1376 17.0508 14.1376Z" fill="#C4C4C4"/>
<path d="M17.7208 15.7496H11.3527C11.3048 15.7496 11.2572 15.7402 11.2129 15.7218C11.1686 15.7035 11.1283 15.6766 11.0944 15.6427C11.0605 15.6088 11.0336 15.5685 11.0153 15.5242C10.997 15.4799 10.9876 15.4325 10.9877 15.3845C10.9877 15.3367 10.9971 15.2892 11.0155 15.245C11.0338 15.2008 11.0607 15.1606 11.0946 15.1267C11.1285 15.0929 11.1687 15.066 11.213 15.0477C11.2573 15.0294 11.3048 15.02 11.3527 15.02H17.7208C17.8177 15.02 17.9105 15.0584 17.979 15.1267C18.0475 15.1951 18.0859 15.2878 18.0859 15.3845C18.086 15.4325 18.0766 15.4799 18.0583 15.5242C18.04 15.5685 18.0131 15.6088 17.9792 15.6427C17.9453 15.6766 17.905 15.7035 17.8607 15.7218C17.8164 15.7402 17.7688 15.7496 17.7208 15.7496Z" fill="#C4C4C4"/>
<path d="M19.0151 29.1501H12.4901C11.6603 29.1501 10.9877 29.8219 10.9877 30.6506C10.9877 31.4792 11.6603 32.151 12.4901 32.151H19.0151C19.8449 32.151 20.5176 31.4792 20.5176 30.6506C20.5176 29.8219 19.8449 29.1501 19.0151 29.1501Z" fill="#E8E8E8"/>
<path d="M25.7304 31.9117V32.3403H25.3016V31.9117H24.4434V31.269H25.3016V30.7334C24.7293 30.7334 24.4432 30.4335 24.4434 29.8337C24.4434 29.2196 24.7294 28.9125 25.3016 28.9124V28.4839H25.7304V28.9115H26.5887V29.5544H25.7304V30.0898C26.3025 30.0898 26.5885 30.3969 26.5887 31.0111C26.5887 31.6115 26.3026 31.9117 25.7304 31.9117ZM25.0869 29.8333C25.0869 30.0047 25.1585 30.0903 25.3016 30.0903V29.5549C25.1583 29.5549 25.0868 29.6477 25.0869 29.8333ZM25.7304 30.733V31.2686C25.8734 31.2686 25.945 31.183 25.945 31.0116C25.945 30.826 25.8734 30.7331 25.7304 30.733Z" fill="#F55B62"/>
<g opacity="0.13" style="mix-blend-mode:multiply">
<path d="M27.9546 22.841C23.6752 22.841 20.1938 19.3642 20.1938 15.0908C20.1938 10.8174 23.6752 7.34039 27.9546 7.34039C32.234 7.34039 35.7154 10.8172 35.7154 15.0908C35.7154 19.3644 32.2338 22.841 27.9546 22.841Z" fill="#595959"/>
</g>
<path d="M26.8599 20.7269C30.7337 20.7269 33.8741 17.5908 33.8741 13.7221C33.8741 9.85354 30.7337 6.71741 26.8599 6.71741C22.986 6.71741 19.8456 9.85354 19.8456 13.7221C19.8456 17.5908 22.986 20.7269 26.8599 20.7269Z" fill="#9ED13F"/>
<path d="M25.0373 16.579L22.9132 14.5903C22.8054 14.4893 22.7195 14.3674 22.6607 14.232C22.602 14.0965 22.5717 13.9505 22.5717 13.8029C22.5717 13.6554 22.602 13.5093 22.6607 13.3739C22.7195 13.2385 22.8054 13.1166 22.9132 13.0156C23.1135 12.8281 23.3778 12.7238 23.6523 12.7238C23.9269 12.7238 24.1911 12.8281 24.3915 13.0156L25.539 14.0901C25.6034 14.1502 25.6881 14.1836 25.7762 14.1836C25.8643 14.1836 25.9491 14.1502 26.0134 14.0901L29.3063 11.0074C29.5066 10.8199 29.7708 10.7156 30.0453 10.7156C30.3198 10.7156 30.5841 10.8199 30.7843 11.0074C30.8922 11.1084 30.9781 11.2303 31.0369 11.3657C31.0957 11.5012 31.126 11.6472 31.126 11.7948C31.126 11.9424 31.0957 12.0884 31.0369 12.2238C30.9781 12.3592 30.8922 12.4812 30.7843 12.5821L26.5152 16.579C26.3149 16.7663 26.0507 16.8706 25.7762 16.8706C25.5018 16.8706 25.2376 16.7663 25.0373 16.579Z" fill="white"/>
</svg>
