<svg width="45" height="45" viewBox="0 0 45 45" fill="none" xmlns="http://www.w3.org/2000/svg">
<circle cx="22.3186" cy="22.3186" r="22.3186" fill="#EDFFEE"/>
<path d="M32.975 16.11H12.1236C11.7963 16.11 11.531 16.3736 11.531 16.6988V23.6717C11.531 23.9969 11.7963 24.2606 12.1236 24.2606H32.975C33.3023 24.2606 33.5676 23.9969 33.5676 23.6717V16.6988C33.5676 16.3736 33.3023 16.11 32.975 16.11Z" fill="url(#paint0_linear_1_307)"/>
<path d="M13.6497 21.7434L13.8926 22.4247L14.1341 21.7434H14.3901V22.6837H14.1945V22.4268L14.2141 21.9835L13.9586 22.6837H13.8248L13.5706 21.9833L13.5891 22.4268V22.6837H13.3951V21.7434H13.6497Z" fill="url(#paint1_linear_1_307)"/>
<path d="M14.5194 22.3273C14.5182 22.2633 14.5319 22.1999 14.5596 22.1421C14.5848 22.0896 14.6251 22.0459 14.6755 22.0163C14.7288 21.9858 14.7896 21.9704 14.8511 21.9717C14.8937 21.9701 14.9361 21.9769 14.976 21.9917C15.0159 22.0066 15.0524 22.0292 15.0834 22.0582C15.1435 22.1158 15.1769 22.1941 15.1837 22.2931L15.185 22.3409C15.185 22.448 15.1549 22.5337 15.0946 22.5978C15.0344 22.6619 14.9537 22.6943 14.8524 22.6949C14.7512 22.6949 14.6704 22.6626 14.6099 22.598C14.5494 22.5334 14.5192 22.4457 14.5194 22.335V22.3273ZM14.7071 22.3405C14.7071 22.4069 14.7196 22.4576 14.744 22.4928C14.7566 22.5091 14.7729 22.5223 14.7914 22.5314C14.81 22.5405 14.8304 22.5452 14.8511 22.5452C14.8719 22.5452 14.8923 22.5405 14.9109 22.5314C14.9294 22.5223 14.9457 22.5091 14.9583 22.4928C14.9838 22.4582 14.9965 22.4027 14.9965 22.3264C14.9965 22.2614 14.9838 22.2109 14.9583 22.1753C14.9464 22.158 14.9302 22.144 14.9113 22.1346C14.8925 22.1252 14.8715 22.1207 14.8504 22.1215C14.8296 22.1206 14.8088 22.1251 14.7902 22.1344C14.7716 22.1438 14.7557 22.1577 14.744 22.1749C14.7194 22.2108 14.7071 22.266 14.7071 22.3405Z" fill="url(#paint2_linear_1_307)"/>
<path d="M17.0744 21.9002H16.7857V22.6837H16.5899V21.9002H16.3041V21.7434H17.0744V21.9002Z" fill="url(#paint3_linear_1_307)"/>
<path d="M17.5518 22.6119C17.5284 22.6397 17.4989 22.6618 17.4656 22.6763C17.4322 22.6909 17.3959 22.6976 17.3595 22.6958C17.2843 22.6958 17.2267 22.6742 17.1871 22.6312C17.1476 22.5883 17.1273 22.5251 17.1263 22.4422V21.9846H17.314V22.4363C17.314 22.509 17.3474 22.5453 17.4142 22.5453C17.4777 22.5453 17.5215 22.5235 17.5453 22.4794V21.9838H17.7336V22.6813H17.557L17.5518 22.6119Z" fill="url(#paint4_linear_1_307)"/>
<path d="M19.6734 22.4119L19.8007 21.7434H19.9951L19.7852 22.6837H19.589L19.4351 22.0553L19.2812 22.6837H19.085L18.8754 21.7443H19.0695L19.1974 22.4115L19.3533 21.7434H19.5183L19.6734 22.4119Z" fill="url(#paint5_linear_1_307)"/>
<path d="M20.3915 22.6958C20.2884 22.6958 20.2045 22.6644 20.1398 22.6015C20.0752 22.5386 20.0428 22.4549 20.0427 22.3506V22.3322C20.0415 22.2673 20.0556 22.2029 20.0837 22.1443C20.1087 22.091 20.149 22.0463 20.1995 22.0158C20.2514 21.9855 20.3106 21.97 20.3708 21.971C20.4668 21.971 20.5424 22.0011 20.5976 22.0613C20.6528 22.1215 20.6804 22.2072 20.6806 22.3183V22.3944H20.2329C20.2373 22.4366 20.257 22.4758 20.2884 22.5046C20.3203 22.5326 20.3618 22.5474 20.4044 22.5459C20.4369 22.5473 20.4693 22.5409 20.4988 22.5273C20.5283 22.5137 20.5541 22.4932 20.574 22.4677L20.6663 22.5703C20.6371 22.6107 20.5977 22.6427 20.552 22.663C20.5016 22.6855 20.4467 22.6967 20.3915 22.6958ZM20.3697 22.1221C20.3527 22.1215 20.3359 22.1245 20.3203 22.131C20.3046 22.1375 20.2906 22.1473 20.2791 22.1597C20.2536 22.1902 20.238 22.2277 20.2346 22.2672H20.4956V22.2524C20.4971 22.2172 20.485 22.1828 20.4618 22.1562C20.4498 22.1444 20.4353 22.1352 20.4194 22.1293C20.4035 22.1235 20.3866 22.121 20.3697 22.1221Z" fill="url(#paint6_linear_1_307)"/>
<path d="M23.5075 21.2188H21.6572C21.569 21.2188 21.4976 21.2898 21.4976 21.3774V23.2158C21.4976 23.3034 21.569 23.3744 21.6572 23.3744H23.5075C23.5957 23.3744 23.6671 23.3034 23.6671 23.2158V21.3774C23.6671 21.2898 23.5957 21.2188 23.5075 21.2188Z" fill="url(#paint7_linear_1_307)"/>
<path d="M22.5951 21.9002H22.3054V22.6837H22.1105V21.9002H21.8247V21.7434H22.5951V21.9002Z" fill="url(#paint8_linear_1_307)"/>
<path d="M22.8768 22.0608C22.8991 22.0326 22.9276 22.0099 22.9601 21.9944C22.9927 21.979 23.0284 21.9712 23.0645 21.9717C23.2169 21.9717 23.2942 22.0597 23.2963 22.2357V22.6837H23.1086V22.2399C23.1112 22.2081 23.102 22.1764 23.0826 22.1509C23.0652 22.1325 23.0364 22.1221 22.9963 22.1221C22.9724 22.1204 22.9485 22.1255 22.9273 22.1367C22.9062 22.1479 22.8887 22.1649 22.8768 22.1856V22.6837H22.6891V21.6926H22.8768V22.0608Z" fill="url(#paint9_linear_1_307)"/>
<path d="M25.4081 22.2983H25.034V22.6837H24.8391V21.7434H25.4548V21.9002H25.034V22.1428H25.4081V22.2983Z" fill="url(#paint10_linear_1_307)"/>
<path d="M25.9336 22.1595C25.9112 22.1563 25.8886 22.1546 25.866 22.1544C25.7951 22.1544 25.7486 22.1782 25.7265 22.226V22.6837H25.5388V21.9862H25.716L25.7212 22.0696C25.7588 22.0055 25.8111 21.9734 25.8778 21.9734C25.8976 21.9732 25.9173 21.9761 25.9362 21.9818L25.9336 22.1595Z" fill="url(#paint11_linear_1_307)"/>
<path d="M27.9333 22.4363C27.9341 22.4202 27.931 22.4041 27.9242 22.3895C27.9174 22.3748 27.9072 22.362 27.8943 22.3522C27.8509 22.3246 27.8036 22.3037 27.7539 22.2902C27.6986 22.2735 27.645 22.252 27.5935 22.2259C27.4863 22.1683 27.4326 22.0907 27.4324 21.993C27.4318 21.9443 27.447 21.8967 27.4757 21.8572C27.5074 21.8151 27.5503 21.7828 27.5996 21.7639C27.6573 21.7408 27.719 21.7294 27.7812 21.7303C27.8434 21.7293 27.905 21.7418 27.9617 21.7671C28.0118 21.789 28.0545 21.8247 28.0848 21.87C28.1143 21.9148 28.1296 21.9674 28.1287 22.0209H27.9338C27.9349 22.0022 27.9318 21.9836 27.9247 21.9663C27.9176 21.9489 27.9068 21.9334 27.893 21.9207C27.8604 21.8951 27.8194 21.8823 27.7779 21.8849C27.7387 21.8826 27.6997 21.8931 27.6671 21.9148C27.6545 21.9238 27.6443 21.9357 27.6374 21.9495C27.6306 21.9633 27.6271 21.9785 27.6275 21.9939C27.6279 22.0096 27.6323 22.0249 27.6405 22.0384C27.6486 22.0518 27.6601 22.063 27.6739 22.0706C27.7164 22.0964 27.7625 22.1159 27.8106 22.1286C27.9214 22.1618 28.0022 22.2029 28.0528 22.252C28.0777 22.2756 28.0973 22.3041 28.1104 22.3358C28.1235 22.3674 28.1298 22.4014 28.1289 22.4355C28.1304 22.4725 28.1228 22.5093 28.1067 22.5427C28.0906 22.5761 28.0665 22.605 28.0365 22.627C27.975 22.6732 27.8916 22.6964 27.7866 22.6964C27.7182 22.6973 27.6505 22.6837 27.5878 22.6565C27.5328 22.6339 27.4854 22.5962 27.4511 22.5479C27.4193 22.5006 27.4029 22.4447 27.404 22.3878H27.5994C27.5994 22.4916 27.6618 22.5434 27.7866 22.5433C27.8248 22.5454 27.8627 22.5357 27.895 22.5154C27.9075 22.5064 27.9176 22.4945 27.9243 22.4807C27.931 22.4669 27.9341 22.4516 27.9333 22.4363Z" fill="url(#paint12_linear_1_307)"/>
<path d="M28.6557 22.6837C28.6462 22.664 28.64 22.6428 28.6372 22.6211C28.6151 22.6459 28.5877 22.6656 28.5571 22.6786C28.5264 22.6917 28.4932 22.6979 28.4599 22.6967C28.3974 22.699 28.3363 22.6777 28.2888 22.6373C28.267 22.6189 28.2496 22.596 28.2378 22.5701C28.226 22.5442 28.2202 22.5161 28.2208 22.4877C28.2192 22.4546 28.2259 22.4217 28.2404 22.3919C28.2549 22.3621 28.2767 22.3364 28.3038 22.3172C28.3589 22.2778 28.439 22.2578 28.5439 22.2573H28.6304V22.2173C28.6319 22.1893 28.6229 22.1617 28.6053 22.1399C28.5951 22.1295 28.5828 22.1215 28.5691 22.1164C28.5555 22.1114 28.5409 22.1094 28.5264 22.1107C28.4998 22.1092 28.4736 22.1173 28.4525 22.1334C28.4435 22.141 28.4364 22.1505 28.4317 22.1612C28.4271 22.172 28.4249 22.1836 28.4255 22.1953H28.2378C28.2376 22.1549 28.2506 22.1155 28.2748 22.083C28.3022 22.0469 28.339 22.0189 28.3812 22.002C28.4302 21.9818 28.4828 21.9718 28.5358 21.9726C28.622 21.9726 28.6907 21.9942 28.742 22.0374C28.7932 22.0806 28.8186 22.1414 28.8183 22.2199V22.5224C28.8183 22.5887 28.8276 22.6389 28.8462 22.6729V22.6837H28.6557ZM28.5005 22.5541C28.5272 22.5543 28.5535 22.548 28.5772 22.5358C28.5991 22.5248 28.6171 22.5076 28.6291 22.4864V22.3664H28.5589C28.4651 22.3664 28.4151 22.3986 28.4089 22.4631V22.4741C28.4086 22.4849 28.4107 22.4956 28.4149 22.5055C28.4192 22.5154 28.4256 22.5243 28.4336 22.5316C28.4524 22.5469 28.4763 22.5547 28.5005 22.5532V22.5541Z" fill="url(#paint13_linear_1_307)"/>
<path d="M30.6883 22.4363C30.6892 22.4202 30.6861 22.4041 30.6793 22.3895C30.6725 22.3748 30.6622 22.362 30.6493 22.3522C30.606 22.3246 30.5586 22.3037 30.5089 22.2902C30.4537 22.2735 30.4 22.252 30.3486 22.2259C30.2412 22.1683 30.1875 22.0907 30.1875 21.993C30.1869 21.9443 30.202 21.8967 30.2307 21.8572C30.2625 21.8151 30.3055 21.7828 30.3549 21.7639C30.4125 21.7408 30.4742 21.7294 30.5363 21.7303C30.5984 21.7293 30.66 21.7418 30.7168 21.7671C30.7669 21.789 30.8096 21.8247 30.84 21.87C30.8693 21.9149 30.8846 21.9674 30.8838 22.0209H30.6889C30.6899 22.0022 30.6868 21.9836 30.6797 21.9663C30.6727 21.9489 30.6619 21.9334 30.648 21.9207C30.6155 21.8951 30.5746 21.8823 30.5331 21.8849C30.4939 21.8826 30.455 21.8931 30.4223 21.9148C30.4097 21.9238 30.3996 21.9357 30.3927 21.9495C30.3858 21.9633 30.3824 21.9785 30.3828 21.9939C30.3831 22.0096 30.3876 22.0249 30.3958 22.0384C30.4039 22.0518 30.4154 22.0629 30.4291 22.0706C30.4717 22.0964 30.5177 22.1159 30.5658 22.1286C30.6767 22.1618 30.7575 22.2029 30.8082 22.252C30.833 22.2757 30.8526 22.3042 30.8657 22.3358C30.8787 22.3674 30.885 22.4014 30.8841 22.4355C30.8856 22.4725 30.878 22.5093 30.8619 22.5427C30.8458 22.5761 30.8217 22.605 30.7918 22.627C30.7302 22.6732 30.6469 22.6964 30.5418 22.6964C30.4735 22.6973 30.4057 22.6837 30.343 22.6565C30.288 22.6339 30.2406 22.5962 30.2063 22.5479C30.1745 22.5006 30.1581 22.4447 30.1592 22.3878H30.3547C30.3547 22.4916 30.4171 22.5434 30.5418 22.5433C30.58 22.5455 30.6179 22.5357 30.6503 22.5154C30.6627 22.5064 30.6728 22.4945 30.6794 22.4806C30.686 22.4668 30.6891 22.4516 30.6883 22.4363Z" fill="url(#paint14_linear_1_307)"/>
<path d="M31.4242 22.6119C31.4009 22.6397 31.3714 22.6618 31.338 22.6763C31.3046 22.6909 31.2683 22.6976 31.2319 22.6958C31.1567 22.6958 31.0991 22.6742 31.0596 22.6312C31.02 22.5883 30.9997 22.5251 30.9988 22.4422V21.9846H31.1865V22.4363C31.1865 22.5097 31.2199 22.5464 31.2866 22.5464C31.3502 22.5464 31.3939 22.5244 31.4178 22.4803V21.9847H31.606V22.6822H31.4294L31.4242 22.6119Z" fill="url(#paint15_linear_1_307)"/>
<path d="M14.9855 19.8426H13.5392V19.5575L14.2218 18.8347C14.3 18.7531 14.3697 18.6639 14.4298 18.5683C14.4714 18.5035 14.4947 18.4288 14.4973 18.3519C14.4973 18.2588 14.4736 18.1854 14.4261 18.1317C14.3787 18.078 14.311 18.0513 14.2229 18.0518C14.1282 18.0518 14.0536 18.0843 13.999 18.1491C13.9445 18.214 13.9172 18.2991 13.9172 18.4046H13.4975C13.4963 18.2819 13.5282 18.1611 13.5898 18.0548C13.6511 17.9491 13.7413 17.863 13.8499 17.8064C13.9674 17.7451 14.0984 17.7141 14.2311 17.7163C14.4484 17.7163 14.6173 17.7681 14.7376 17.8718C14.8579 17.9754 14.9181 18.1218 14.9181 18.311C14.9164 18.4215 14.8885 18.53 14.8368 18.6278C14.7828 18.7354 14.69 18.8606 14.5586 19.0035L14.0783 19.5061H14.9854L14.9855 19.8426Z" fill="url(#paint16_linear_1_307)"/>
<path d="M16.6621 18.976C16.6621 19.2657 16.6017 19.4875 16.4809 19.6412C16.3601 19.7948 16.1833 19.8716 15.9505 19.8713C15.7206 19.8713 15.5447 19.7959 15.4229 19.6452C15.3011 19.4944 15.2388 19.2785 15.236 18.9973V18.6118C15.236 18.3191 15.2971 18.0969 15.4194 17.9451C15.5417 17.7934 15.7178 17.7175 15.9476 17.7175C16.1776 17.7175 16.3535 17.7927 16.4752 17.9429C16.5969 18.0932 16.6592 18.3091 16.6621 18.5905V18.976ZM16.2433 18.5516C16.2433 18.3777 16.2194 18.2511 16.1715 18.1718C16.1236 18.0925 16.0489 18.0529 15.9476 18.0529C15.849 18.0529 15.7764 18.0906 15.7296 18.1659C15.6828 18.2413 15.6582 18.3593 15.6557 18.5198V19.0301C15.6557 19.2014 15.6791 19.3285 15.7259 19.4113C15.7727 19.4942 15.8478 19.5357 15.9513 19.536C16.0536 19.536 16.1275 19.4961 16.173 19.4165C16.2184 19.3368 16.2419 19.2145 16.2433 19.0494V18.5516Z" fill="url(#paint17_linear_1_307)"/>
<path d="M16.9825 18.4587C16.9813 18.4285 16.9867 18.3984 16.9983 18.3704C17.01 18.3425 17.0276 18.3174 17.0499 18.2968C17.0972 18.2568 17.1573 18.2348 17.2195 18.2348C17.2816 18.2348 17.3418 18.2568 17.3891 18.2968C17.4113 18.3173 17.4289 18.3423 17.4405 18.3701C17.4521 18.3979 17.4576 18.4279 17.4565 18.458C17.4576 18.4877 17.4522 18.5173 17.4406 18.5448C17.4291 18.5722 17.4118 18.5969 17.3898 18.6171C17.342 18.6567 17.2817 18.6784 17.2195 18.6784C17.1572 18.6784 17.097 18.6567 17.0492 18.6171C17.0273 18.597 17.01 18.5724 16.9985 18.5451C16.987 18.5178 16.9815 18.4883 16.9825 18.4587ZM16.9825 19.638C16.9814 19.6079 16.9868 19.5779 16.9984 19.5501C17.0101 19.5223 17.0276 19.4973 17.0499 19.4769C17.0972 19.4368 17.1573 19.4149 17.2195 19.4149C17.2816 19.4149 17.3418 19.4368 17.3891 19.4769C17.4113 19.4973 17.4289 19.5223 17.4405 19.5501C17.4522 19.5779 17.4576 19.6079 17.4565 19.638C17.4576 19.6678 17.4522 19.6974 17.4406 19.7248C17.4291 19.7523 17.4118 19.777 17.3898 19.7972C17.342 19.8367 17.2817 19.8583 17.2195 19.8583C17.1573 19.8583 17.097 19.8367 17.0492 19.7972C17.0272 19.777 17.0098 19.7523 16.9983 19.7248C16.9868 19.6974 16.9814 19.6678 16.9825 19.638Z" fill="url(#paint18_linear_1_307)"/>
<path d="M17.8447 18.8108L17.9665 17.7462H19.1488V18.0931H18.3099L18.2578 18.5437C18.3553 18.4915 18.4644 18.4643 18.5752 18.4646C18.7762 18.4646 18.9336 18.5266 19.0475 18.6504C19.1615 18.7742 19.2185 18.9475 19.2186 19.1702C19.2207 19.2966 19.1911 19.4215 19.1323 19.5336C19.0766 19.6394 18.9907 19.7263 18.8853 19.7836C18.7781 19.8425 18.6515 19.872 18.5055 19.8721C18.3828 19.8732 18.2615 19.8468 18.1505 19.795C18.046 19.7476 17.9565 19.6727 17.8918 19.5784C17.8281 19.4842 17.7932 19.3737 17.7911 19.2601H18.2055C18.2144 19.3475 18.2452 19.4154 18.2979 19.4639C18.3506 19.5123 18.4194 19.5368 18.5044 19.5373C18.599 19.5373 18.6719 19.5035 18.7231 19.4358C18.7744 19.3681 18.7997 19.2719 18.7993 19.1471C18.7993 19.0281 18.7698 18.937 18.7108 18.8736C18.6518 18.8102 18.5682 18.7785 18.4601 18.7785C18.3606 18.7785 18.2799 18.8044 18.2181 18.8561L18.1774 18.8929L17.8447 18.8108Z" fill="url(#paint19_linear_1_307)"/>
<path d="M19.5477 18.8108L19.6694 17.7462H20.8517V18.0931H20.0128L19.9605 18.5437C20.0581 18.4915 20.1673 18.4643 20.2781 18.4646C20.479 18.4646 20.6364 18.5266 20.7505 18.6504C20.8645 18.7742 20.9216 18.9475 20.9216 19.1702C20.9237 19.2966 20.894 19.4215 20.8353 19.5336C20.7796 19.6394 20.6936 19.7264 20.5881 19.7836C20.481 19.8425 20.3544 19.872 20.2085 19.8721C20.0858 19.8732 19.9644 19.8468 19.8534 19.795C19.7489 19.7477 19.6594 19.6728 19.5948 19.5784C19.531 19.4842 19.496 19.3737 19.4939 19.2601H19.9077C19.9165 19.3475 19.9472 19.4154 20.0001 19.4639C20.0529 19.5123 20.1218 19.5368 20.2066 19.5373C20.3014 19.5373 20.3742 19.5035 20.4255 19.4358C20.4769 19.3681 20.5022 19.2724 20.5022 19.1485C20.5022 19.0296 20.4728 18.9384 20.4139 18.8751C20.355 18.8117 20.2715 18.78 20.1632 18.78C20.0637 18.78 19.983 18.8059 19.9212 18.8576L19.8806 18.8943L19.5477 18.8108Z" fill="url(#paint20_linear_1_307)"/>
<path d="M32.975 26.0458H12.1236C11.7963 26.0458 11.531 26.3095 11.531 26.6347V33.6076C11.531 33.9328 11.7963 34.1964 12.1236 34.1964H32.975C33.3023 34.1964 33.5676 33.9328 33.5676 33.6076V26.6347C33.5676 26.3095 33.3023 26.0458 32.975 26.0458Z" fill="url(#paint21_linear_1_307)"/>
<path d="M13.6497 31.6792L13.8926 32.3605L14.1341 31.6792H14.3901V32.6188H14.1945V32.3618L14.2141 31.9186L13.9586 32.6188H13.8248L13.5706 31.9193L13.59 32.3618V32.6188H13.3951V31.6792H13.6497Z" fill="url(#paint22_linear_1_307)"/>
<path d="M14.5194 32.2631C14.5182 32.1991 14.5319 32.1357 14.5596 32.0779C14.5849 32.0255 14.6252 31.9817 14.6755 31.9521C14.7288 31.9216 14.7896 31.9062 14.8511 31.9075C14.8937 31.9059 14.9361 31.9127 14.976 31.9275C15.0159 31.9424 15.0524 31.965 15.0834 31.994C15.1435 32.0519 15.1769 32.1302 15.1837 32.2289L15.185 32.2766C15.185 32.3838 15.1549 32.4695 15.0946 32.5336C15.0344 32.5977 14.9537 32.6306 14.8524 32.6322C14.7512 32.6322 14.6704 32.5999 14.6099 32.5354C14.5494 32.471 14.5192 32.3832 14.5194 32.2721V32.2631ZM14.7071 32.2765C14.7071 32.3428 14.7194 32.3935 14.744 32.4286C14.7566 32.4449 14.7729 32.4581 14.7914 32.4672C14.81 32.4763 14.8304 32.481 14.8511 32.481C14.8719 32.481 14.8923 32.4763 14.9109 32.4672C14.9294 32.4581 14.9457 32.4449 14.9583 32.4286C14.9838 32.3939 14.9965 32.3384 14.9965 32.2623C14.9965 32.1972 14.9838 32.1469 14.9583 32.1111C14.9464 32.0938 14.9302 32.0798 14.9113 32.0704C14.8925 32.061 14.8715 32.0565 14.8504 32.0573C14.8296 32.0564 14.8088 32.0609 14.7902 32.0702C14.7716 32.0796 14.7557 32.0935 14.744 32.1107C14.7194 32.1467 14.7071 32.2019 14.7071 32.2765Z" fill="url(#paint23_linear_1_307)"/>
<path d="M17.0744 31.836H16.7857V32.6188H16.5899V31.836H16.3041V31.6792H17.0744V31.836Z" fill="url(#paint24_linear_1_307)"/>
<path d="M17.5518 32.5477C17.5284 32.5755 17.4989 32.5975 17.4656 32.6121C17.4322 32.6266 17.3959 32.6333 17.3595 32.6316C17.2843 32.6316 17.2267 32.6101 17.1871 32.567C17.1476 32.5239 17.1273 32.4611 17.1263 32.3779V31.9205H17.314V32.3721C17.314 32.4455 17.3475 32.4822 17.4142 32.4822C17.4777 32.4822 17.5214 32.4602 17.5453 32.4163V31.9207H17.7336V32.6182H17.557L17.5518 32.5477Z" fill="url(#paint25_linear_1_307)"/>
<path d="M19.6734 32.3477L19.8007 31.6792H19.9951L19.7852 32.6188H19.589L19.4351 31.9898L19.2812 32.6184H19.085L18.8754 31.6788H19.0695L19.1974 32.346L19.3533 31.6788H19.5183L19.6734 32.3477Z" fill="url(#paint26_linear_1_307)"/>
<path d="M20.3915 32.6322C20.2884 32.6322 20.2045 32.6008 20.1398 32.538C20.0752 32.4752 20.0428 32.3915 20.0427 32.2869V32.2686C20.0415 32.2035 20.0556 32.1392 20.0837 32.0804C20.1087 32.0272 20.149 31.9825 20.1995 31.9519C20.2513 31.9215 20.3106 31.906 20.3708 31.907C20.4668 31.907 20.5425 31.9371 20.5976 31.9975C20.6528 32.0578 20.6805 32.1434 20.6806 32.2544V32.3306H20.2329C20.2372 32.3728 20.257 32.412 20.2884 32.4407C20.3203 32.4688 20.3618 32.4835 20.4044 32.482C20.4369 32.4834 20.4693 32.4771 20.4988 32.4635C20.5283 32.4499 20.5541 32.4294 20.574 32.4038L20.6664 32.5065C20.6372 32.5469 20.5977 32.5788 20.552 32.5991C20.5016 32.6218 20.4468 32.6331 20.3915 32.6322ZM20.3697 32.0578C20.3528 32.0572 20.336 32.0601 20.3204 32.0664C20.3048 32.0727 20.2907 32.0823 20.2791 32.0946C20.2536 32.125 20.238 32.1626 20.2346 32.2021H20.4957V32.1873C20.4971 32.1521 20.485 32.1177 20.4618 32.0911C20.4497 32.0794 20.4352 32.0704 20.4193 32.0647C20.4034 32.059 20.3865 32.0567 20.3697 32.0578Z" fill="url(#paint27_linear_1_307)"/>
<path d="M26.2219 31.1546H24.3715C24.2834 31.1546 24.2119 31.2256 24.2119 31.3132V33.1516C24.2119 33.2392 24.2834 33.3102 24.3715 33.3102H26.2219C26.31 33.3102 26.3815 33.2392 26.3815 33.1516V31.3132C26.3815 31.2256 26.31 31.1546 26.2219 31.1546Z" fill="url(#paint28_linear_1_307)"/>
<path d="M22.5951 31.836H22.3054V32.6188H22.1105V31.836H21.8247V31.6792H22.5951V31.836Z" fill="url(#paint29_linear_1_307)"/>
<path d="M22.8768 31.9966C22.8991 31.9684 22.9276 31.9457 22.9601 31.9302C22.9927 31.9148 23.0284 31.907 23.0645 31.9075C23.2169 31.9075 23.2942 31.9955 23.2963 32.1715V32.6188H23.1086V32.1757C23.1112 32.1439 23.102 32.1122 23.0826 32.0867C23.0652 32.0683 23.0364 32.0579 22.9963 32.0579C22.9724 32.0562 22.9485 32.0613 22.9274 32.0726C22.9062 32.0838 22.8887 32.1007 22.8768 32.1214V32.6188H22.6891V31.6276H22.8768V31.9966Z" fill="url(#paint30_linear_1_307)"/>
<path d="M25.4081 32.2348H25.034V32.6188H24.8391V31.6792H25.4548V31.836H25.034V32.0786H25.4081V32.2348Z" fill="url(#paint31_linear_1_307)"/>
<path d="M25.9336 32.0953C25.9112 32.0922 25.8886 32.0904 25.866 32.0902C25.7951 32.0902 25.7486 32.114 25.7265 32.1617V32.6188H25.5388V31.9213H25.716L25.7212 32.0044C25.7588 31.9404 25.8111 31.9084 25.8778 31.9083C25.8976 31.9082 25.9173 31.911 25.9362 31.9167L25.9336 32.0953Z" fill="url(#paint32_linear_1_307)"/>
<path d="M27.9332 32.3723C27.9341 32.3561 27.931 32.34 27.9242 32.3253C27.9175 32.3107 27.9072 32.2978 27.8943 32.288C27.8509 32.2604 27.8035 32.2395 27.7539 32.226C27.6986 32.2093 27.645 32.1878 27.5935 32.1617C27.4863 32.1041 27.4326 32.0264 27.4324 31.9288C27.4318 31.8801 27.447 31.8325 27.4757 31.793C27.5074 31.751 27.5503 31.7187 27.5996 31.6997C27.6573 31.6766 27.719 31.6652 27.7812 31.6661C27.8434 31.6651 27.905 31.6776 27.9617 31.7028C28.0117 31.7249 28.0544 31.7606 28.0847 31.8058C28.1143 31.8507 28.1296 31.9033 28.1287 31.9569H27.9338C27.9349 31.9382 27.9318 31.9195 27.9247 31.9021C27.9176 31.8848 27.9068 31.8692 27.893 31.8565C27.8605 31.8305 27.8195 31.8174 27.7779 31.8198C27.7386 31.8174 27.6997 31.8279 27.667 31.8497C27.6545 31.8587 27.6443 31.8706 27.6374 31.8844C27.6305 31.8982 27.6271 31.9134 27.6275 31.9288C27.6279 31.9445 27.6323 31.9598 27.6405 31.9733C27.6486 31.9867 27.6601 31.9978 27.6739 32.0055C27.7164 32.0313 27.7625 32.0509 27.8106 32.0637C27.9214 32.0967 28.0022 32.1378 28.0528 32.1869C28.0776 32.2105 28.0973 32.239 28.1104 32.2706C28.1235 32.3023 28.1298 32.3362 28.1289 32.3704C28.1304 32.4074 28.1228 32.4441 28.1067 32.4775C28.0906 32.5108 28.0665 32.5397 28.0365 32.5617C27.9749 32.6079 27.8916 32.6311 27.7866 32.6311C27.7182 32.632 27.6505 32.6185 27.5878 32.5914C27.5328 32.5687 27.4853 32.531 27.4511 32.4826C27.4193 32.4353 27.4029 32.3794 27.404 32.3225H27.5994C27.5994 32.4262 27.6618 32.478 27.7866 32.4782C27.8248 32.4803 27.8627 32.4705 27.895 32.4501C27.9073 32.4412 27.9173 32.4295 27.9239 32.4159C27.9306 32.4024 27.9338 32.3874 27.9332 32.3723Z" fill="url(#paint33_linear_1_307)"/>
<path d="M28.6553 32.6187C28.6459 32.599 28.6397 32.5778 28.6369 32.5562C28.6147 32.5809 28.5873 32.6005 28.5566 32.6135C28.526 32.6265 28.4928 32.6327 28.4595 32.6316C28.397 32.6338 28.3359 32.6126 28.2884 32.5721C28.2666 32.5538 28.2492 32.5308 28.2374 32.505C28.2257 32.4791 28.2199 32.4509 28.2205 32.4225C28.2188 32.3895 28.2255 32.3566 28.24 32.3268C28.2545 32.2971 28.2763 32.2714 28.3034 32.2522C28.3586 32.2126 28.4386 32.1926 28.5436 32.1922H28.63V32.1522C28.6315 32.1242 28.6226 32.0966 28.6049 32.0747C28.5948 32.0644 28.5824 32.0564 28.5688 32.0514C28.5551 32.0463 28.5405 32.0444 28.526 32.0457C28.4995 32.0442 28.4732 32.0522 28.4521 32.0683C28.4432 32.0759 28.4361 32.0854 28.4314 32.0961C28.4267 32.1068 28.4246 32.1185 28.4252 32.1301H28.2375C28.2373 32.0898 28.2502 32.0504 28.2744 32.018C28.3017 31.9818 28.3385 31.9537 28.3808 31.9369C28.4298 31.9168 28.4824 31.9068 28.5354 31.9075C28.6216 31.9075 28.6904 31.9292 28.7416 31.9725C28.7928 32.0158 28.8183 32.0766 28.8179 32.1547V32.4574C28.8179 32.5236 28.8272 32.5737 28.8458 32.6077V32.6187H28.6553ZM28.5002 32.489C28.5268 32.4892 28.5532 32.4829 28.5768 32.4706C28.5987 32.4597 28.6168 32.4425 28.6287 32.4212V32.3018H28.5585C28.4647 32.3018 28.4147 32.334 28.4085 32.3985V32.4095C28.4082 32.4203 28.4103 32.431 28.4146 32.4409C28.4188 32.4508 28.4252 32.4597 28.4333 32.4669C28.4519 32.4825 28.4759 32.4903 28.5002 32.489Z" fill="url(#paint34_linear_1_307)"/>
<path d="M30.6883 32.3723C30.6892 32.3561 30.6861 32.34 30.6793 32.3253C30.6725 32.3107 30.6622 32.2978 30.6493 32.288C30.6059 32.2604 30.5586 32.2395 30.5089 32.226C30.4537 32.2093 30.4 32.1878 30.3486 32.1617C30.2412 32.1041 30.1875 32.0264 30.1875 31.9288C30.1869 31.8801 30.202 31.8325 30.2307 31.793C30.2625 31.751 30.3055 31.7187 30.3549 31.6997C30.4125 31.6766 30.4742 31.6652 30.5363 31.6661C30.5984 31.6651 30.66 31.6776 30.7168 31.7028C30.7668 31.7249 30.8096 31.7606 30.84 31.8058C30.8694 31.8507 30.8846 31.9033 30.8838 31.9569H30.6889C30.6899 31.9382 30.6868 31.9195 30.6798 31.9021C30.6727 31.8848 30.6619 31.8692 30.648 31.8565C30.6156 31.8305 30.5747 31.8175 30.5331 31.8198C30.4939 31.8175 30.455 31.828 30.4223 31.8497C30.4097 31.8587 30.3996 31.8706 30.3927 31.8844C30.3858 31.8982 30.3824 31.9134 30.3828 31.9288C30.3832 31.9445 30.3876 31.9598 30.3958 31.9732C30.4039 31.9867 30.4154 31.9978 30.4291 32.0055C30.4717 32.0312 30.5177 32.0508 30.5658 32.0637C30.6767 32.0967 30.7575 32.1378 30.8082 32.1869C30.833 32.2105 30.8526 32.2391 30.8657 32.2707C30.8787 32.3023 30.885 32.3363 30.8841 32.3704C30.8856 32.4074 30.878 32.4441 30.8619 32.4775C30.8458 32.5108 30.8217 32.5397 30.7918 32.5617C30.7302 32.6079 30.6469 32.6311 30.5418 32.6311C30.4735 32.632 30.4057 32.6185 30.343 32.5914C30.288 32.5687 30.2406 32.531 30.2063 32.4826C30.1745 32.4353 30.1581 32.3794 30.1592 32.3225H30.3547C30.3547 32.4262 30.4171 32.478 30.5418 32.4782C30.58 32.4804 30.618 32.4705 30.6503 32.4501C30.6626 32.4412 30.6725 32.4295 30.6791 32.4159C30.6857 32.4023 30.6889 32.3873 30.6883 32.3723Z" fill="url(#paint35_linear_1_307)"/>
<path d="M31.4242 32.5477C31.3779 32.6036 31.3138 32.6316 31.2319 32.6316C31.1567 32.6316 31.0991 32.6101 31.0596 32.567C31.02 32.5239 30.9997 32.4611 30.9988 32.3779V31.9205H31.1865V32.3721C31.1865 32.4455 31.2199 32.4822 31.2866 32.4822C31.3502 32.4822 31.3939 32.4602 31.4178 32.4163V31.9207H31.606V32.6182H31.4294L31.4242 32.5477Z" fill="url(#paint36_linear_1_307)"/>
<path d="M14.9855 29.7783H13.5392V29.4935L14.2218 28.7706C14.3 28.6891 14.3697 28.5998 14.4298 28.5043C14.4714 28.4396 14.4947 28.365 14.4973 28.2883C14.4973 28.1952 14.4736 28.1217 14.4261 28.068C14.3787 28.0143 14.311 27.9876 14.2229 27.988C14.1282 27.988 14.0536 28.0204 13.999 28.0853C13.9445 28.1501 13.9172 28.2353 13.9172 28.3408H13.4975C13.4963 28.2181 13.5282 28.0973 13.5898 27.9909C13.6512 27.8854 13.7413 27.7993 13.8499 27.7426C13.9674 27.6813 14.0984 27.6504 14.2311 27.6526C14.4484 27.6526 14.6173 27.7045 14.7376 27.8081C14.8579 27.9118 14.9181 28.0581 14.9181 28.2472C14.9164 28.3576 14.8885 28.4662 14.8368 28.564C14.7828 28.6715 14.69 28.7968 14.5586 28.9399L14.0783 29.4424H14.9854L14.9855 29.7783Z" fill="url(#paint37_linear_1_307)"/>
<path d="M15.6676 28.5458H15.8908C15.9972 28.5458 16.0759 28.5194 16.1271 28.4667C16.1782 28.414 16.2038 28.3438 16.2039 28.2563C16.2039 28.1719 16.1785 28.1062 16.1278 28.0592C16.0771 28.0122 16.0072 27.9886 15.9183 27.9884C15.8455 27.9859 15.7742 28.0091 15.7169 28.0539C15.6909 28.074 15.67 28.1 15.6559 28.1296C15.6418 28.1593 15.635 28.1918 15.6358 28.2246H15.2169C15.2156 28.1199 15.2468 28.0174 15.3061 27.9309C15.3686 27.8414 15.4548 27.7708 15.5553 27.7272C15.6661 27.6773 15.7865 27.6523 15.9081 27.6537C16.1314 27.6537 16.3063 27.7067 16.4328 27.8127C16.5593 27.9187 16.6226 28.0648 16.6227 28.2512C16.6228 28.3467 16.5918 28.4397 16.5342 28.5163C16.4748 28.5973 16.3948 28.6614 16.3024 28.7018C16.4213 28.7442 16.51 28.8075 16.5684 28.892C16.628 28.9805 16.6586 29.0851 16.656 29.1915C16.656 29.3777 16.5876 29.5269 16.4509 29.6392C16.3142 29.7516 16.1333 29.8077 15.9081 29.8077C15.6975 29.8077 15.5251 29.7527 15.3909 29.6425C15.2566 29.5324 15.1897 29.3865 15.1901 29.2048H15.6089C15.6079 29.2416 15.6155 29.2781 15.6309 29.3116C15.6464 29.3451 15.6694 29.3746 15.6981 29.3978C15.7597 29.4484 15.8377 29.4749 15.9176 29.4726C16.0171 29.4726 16.0951 29.4464 16.1516 29.3942C16.1799 29.3675 16.2021 29.3352 16.2168 29.2992C16.2314 29.2633 16.2381 29.2247 16.2364 29.186C16.2364 28.9768 16.1205 28.8722 15.8886 28.8722H15.6669L15.6676 28.5458Z" fill="url(#paint38_linear_1_307)"/>
<path d="M16.9824 28.3947C16.9813 28.3646 16.9868 28.3346 16.9984 28.3067C17.0101 28.2789 17.0276 28.2539 17.0499 28.2334C17.0972 28.1934 17.1573 28.1715 17.2195 28.1715C17.2816 28.1715 17.3417 28.1934 17.389 28.2334C17.4113 28.2539 17.4288 28.2789 17.4405 28.3067C17.4521 28.3346 17.4576 28.3646 17.4565 28.3947C17.4575 28.4244 17.4521 28.454 17.4406 28.4814C17.4291 28.5088 17.4117 28.5335 17.3898 28.5537C17.342 28.5932 17.2817 28.6149 17.2195 28.6149C17.1572 28.6149 17.0969 28.5932 17.0491 28.5537C17.0272 28.5335 17.0098 28.5088 16.9983 28.4814C16.9868 28.454 16.9814 28.4244 16.9824 28.3947ZM16.9824 29.5738C16.9814 29.5437 16.9868 29.5138 16.9985 29.4859C17.0101 29.4581 17.0276 29.4331 17.0499 29.4127C17.0972 29.3727 17.1573 29.3508 17.2195 29.3508C17.2816 29.3508 17.3417 29.3727 17.389 29.4127C17.4113 29.4331 17.4288 29.4581 17.4404 29.4859C17.4521 29.5138 17.4575 29.5437 17.4565 29.5738C17.4575 29.6036 17.4521 29.6332 17.4406 29.6606C17.4291 29.6881 17.4118 29.7128 17.3898 29.733C17.342 29.7726 17.2817 29.7943 17.2195 29.7943C17.1572 29.7943 17.0969 29.7726 17.0491 29.733C17.0271 29.7128 17.0098 29.6881 16.9983 29.6606C16.9868 29.6332 16.9814 29.6036 16.9824 29.5738Z" fill="url(#paint39_linear_1_307)"/>
<path d="M19.021 28.9893H19.2611V29.3248H19.021V29.7783H18.6027V29.3248H17.7376L17.7191 29.0627L18.5987 27.6818H19.021V28.9893ZM18.1355 28.9893H18.6022V28.2492L18.5746 28.2967L18.1355 28.9893Z" fill="url(#paint40_linear_1_307)"/>
<path d="M19.5477 28.7475L19.6694 27.6818H20.8517V28.0289H20.0128L19.9605 28.4795C20.0581 28.4273 20.1673 28.4001 20.2781 28.4004C20.479 28.4004 20.6364 28.4623 20.7505 28.5862C20.8645 28.71 20.9216 28.8833 20.9216 29.106C20.9237 29.2324 20.894 29.3574 20.8353 29.4696C20.7794 29.575 20.6934 29.6617 20.5881 29.7187C20.481 29.7778 20.3544 29.8073 20.2085 29.8072C20.0858 29.8082 19.9645 29.7819 19.8534 29.7302C19.7489 29.6828 19.6595 29.6078 19.5948 29.5135C19.531 29.4192 19.496 29.3087 19.4939 29.1952H19.9077C19.9165 29.2826 19.9472 29.3505 20.0001 29.3989C20.0529 29.4474 20.1218 29.4719 20.2066 29.4724C20.3014 29.4724 20.3742 29.4386 20.4255 29.3709C20.4769 29.3031 20.5022 29.2075 20.5022 29.0836C20.5022 28.9647 20.4728 28.8735 20.4139 28.8101C20.355 28.7467 20.2715 28.715 20.1632 28.715C20.0637 28.715 19.983 28.741 19.9212 28.7929L19.8806 28.8296L19.5477 28.7475Z" fill="url(#paint41_linear_1_307)"/>
<path d="M32.9281 10.4409H31.1553C30.8023 10.4409 30.5161 10.7252 30.5161 11.0759V12.8373C30.5161 13.188 30.8023 13.4724 31.1553 13.4724H32.9281C33.2811 13.4724 33.5673 13.188 33.5673 12.8373V11.0759C33.5673 10.7252 33.2811 10.4409 32.9281 10.4409Z" fill="url(#paint42_linear_1_307)"/>
<path d="M28.2623 10.4409H26.4895C26.1365 10.4409 25.8503 10.7252 25.8503 11.0759V12.8373C25.8503 13.188 26.1365 13.4724 26.4895 13.4724H28.2623C28.6153 13.4724 28.9015 13.188 28.9015 12.8373V11.0759C28.9015 10.7252 28.6153 10.4409 28.2623 10.4409Z" fill="url(#paint43_linear_1_307)"/>
<path d="M27.3024 12.7892C27.1367 12.7892 26.9746 12.7404 26.8368 12.649C26.699 12.5575 26.5915 12.4275 26.5281 12.2754C26.4646 12.1232 26.448 11.9558 26.4803 11.7943C26.5126 11.6328 26.5924 11.4844 26.7096 11.3679C26.8268 11.2515 26.9761 11.1722 27.1387 11.14C27.3012 11.1079 27.4697 11.1244 27.6229 11.1874C27.776 11.2504 27.9069 11.3571 27.999 11.494C28.091 11.631 28.1402 11.7919 28.1402 11.9566C28.14 12.1773 28.0516 12.3889 27.8946 12.545C27.7375 12.7011 27.5245 12.7889 27.3024 12.7892ZM27.3024 11.4282C27.1972 11.4281 27.0943 11.4591 27.0069 11.5171C26.9194 11.5752 26.8512 11.6577 26.8109 11.7543C26.7706 11.8508 26.76 11.9571 26.7805 12.0596C26.801 12.1621 26.8517 12.2563 26.9261 12.3302C27.0004 12.4041 27.0952 12.4545 27.1984 12.4749C27.3016 12.4953 27.4085 12.4848 27.5057 12.4448C27.6029 12.4049 27.686 12.3371 27.7444 12.2502C27.8029 12.1633 27.8341 12.0611 27.8341 11.9566C27.8339 11.8165 27.7779 11.6822 27.6782 11.5832C27.5785 11.4841 27.4434 11.4284 27.3024 11.4282Z" fill="url(#paint44_linear_1_307)"/>
<path d="M32.2468 11.9566L32.7408 11.466C32.7543 11.4526 32.765 11.4367 32.7723 11.4192C32.7796 11.4017 32.7834 11.3829 32.7834 11.364C32.7834 11.345 32.7796 11.3262 32.7723 11.3087C32.765 11.2912 32.7543 11.2753 32.7408 11.2619C32.7273 11.2485 32.7113 11.2379 32.6937 11.2306C32.6761 11.2234 32.6572 11.2196 32.6381 11.2196C32.619 11.2196 32.6002 11.2234 32.5825 11.2306C32.5649 11.2379 32.5489 11.2485 32.5354 11.2619L32.0416 11.7527L31.5478 11.2619C31.5345 11.2476 31.5185 11.236 31.5006 11.228C31.4828 11.22 31.4634 11.2156 31.4438 11.2152C31.4242 11.2148 31.4048 11.2184 31.3866 11.2257C31.3684 11.2329 31.3519 11.2438 31.338 11.2576C31.3242 11.2714 31.3133 11.2878 31.306 11.3059C31.2988 11.324 31.2952 11.3434 31.2957 11.3628C31.2962 11.3823 31.3006 11.4015 31.3087 11.4192C31.3168 11.437 31.3285 11.4529 31.3429 11.466L31.8367 11.9566L31.3429 12.4473C31.3171 12.4746 31.3031 12.5108 31.3037 12.5483C31.3043 12.5857 31.3195 12.6215 31.3462 12.648C31.3728 12.6745 31.4088 12.6896 31.4465 12.6902C31.4842 12.6908 31.5207 12.6768 31.5482 12.6512L32.042 12.1606L32.5358 12.6512C32.5492 12.6648 32.5652 12.6757 32.5829 12.6832C32.6006 12.6906 32.6196 12.6945 32.6388 12.6947C32.658 12.6948 32.677 12.6911 32.6948 12.6839C32.7125 12.6766 32.7287 12.6659 32.7423 12.6525C32.7559 12.639 32.7666 12.6229 32.7739 12.6053C32.7812 12.5876 32.785 12.5687 32.7849 12.5496C32.7848 12.5306 32.7808 12.5117 32.7733 12.4941C32.7659 12.4765 32.7549 12.4606 32.7412 12.4473L32.2468 11.9566Z" fill="url(#paint45_linear_1_307)"/>
<path d="M13.68 21.1259H6.3392C6.18471 21.1259 6.03656 21.1869 5.92732 21.2954C5.81808 21.404 5.75671 21.5512 5.75671 21.7047V25.1738C5.75671 25.3273 5.81808 25.4745 5.92732 25.583C6.03656 25.6915 6.18471 25.7525 6.3392 25.7525H9.5677C9.7283 25.7525 9.88514 25.8008 10.0175 25.8911L12.1537 27.347C12.1949 27.3752 12.243 27.3916 12.293 27.3945C12.3429 27.3974 12.3926 27.3867 12.4369 27.3635C12.4811 27.3404 12.5181 27.3057 12.544 27.2631C12.5698 27.2206 12.5834 27.1718 12.5834 27.1222V25.946C12.5834 25.9205 12.5884 25.8954 12.5982 25.8719C12.608 25.8484 12.6224 25.8271 12.6405 25.8091C12.6586 25.7911 12.6801 25.7769 12.7037 25.7672C12.7274 25.7575 12.7527 25.7525 12.7783 25.7525H13.68C13.8345 25.7525 13.9826 25.6915 14.0919 25.583C14.2011 25.4745 14.2625 25.3273 14.2625 25.1738V21.7047C14.2625 21.6287 14.2474 21.5534 14.2181 21.4832C14.1889 21.413 14.146 21.3492 14.0919 21.2954C14.0378 21.2417 13.9736 21.1991 13.9029 21.17C13.8322 21.1409 13.7565 21.1259 13.68 21.1259Z" fill="url(#paint46_linear_1_307)"/>
<path d="M7.60747 24.0923C8.01813 24.0923 8.35104 23.7615 8.35104 23.3535C8.35104 22.9455 8.01813 22.6147 7.60747 22.6147C7.1968 22.6147 6.86389 22.9455 6.86389 23.3535C6.86389 23.7615 7.1968 24.0923 7.60747 24.0923Z" fill="url(#paint47_linear_1_307)"/>
<path d="M10.0098 24.0923C10.4205 24.0923 10.7534 23.7615 10.7534 23.3535C10.7534 22.9455 10.4205 22.6147 10.0098 22.6147C9.59914 22.6147 9.26624 22.9455 9.26624 23.3535C9.26624 23.7615 9.59914 24.0923 10.0098 24.0923Z" fill="url(#paint48_linear_1_307)"/>
<path d="M12.4118 24.0923C12.8225 24.0923 13.1554 23.7615 13.1554 23.3535C13.1554 22.9455 12.8225 22.6147 12.4118 22.6147C12.0011 22.6147 11.6682 22.9455 11.6682 23.3535C11.6682 23.7615 12.0011 24.0923 12.4118 24.0923Z" fill="url(#paint49_linear_1_307)"/>
<path d="M32.5753 34.1964C36.0575 34.1964 38.8804 31.3917 38.8804 27.9318C38.8804 24.472 36.0575 21.6672 32.5753 21.6672C29.093 21.6672 26.2701 24.472 26.2701 27.9318C26.2701 31.3917 29.093 34.1964 32.5753 34.1964Z" fill="url(#paint50_linear_1_307)"/>
<path d="M32.5753 33.0015C35.3933 33.0015 37.6778 30.7317 37.6778 27.9318C37.6778 25.1319 35.3933 22.8621 32.5753 22.8621C29.7572 22.8621 27.4728 25.1319 27.4728 27.9318C27.4728 30.7317 29.7572 33.0015 32.5753 33.0015Z" fill="url(#paint51_linear_1_307)"/>
<path d="M31.0271 30.1137C30.9976 30.1137 30.9686 30.1055 30.9435 30.0901C30.9184 30.0746 30.8981 30.0524 30.885 30.0261C30.8719 29.9998 30.8664 29.9704 30.8693 29.9412C30.8721 29.912 30.8831 29.8841 30.901 29.8608L32.4169 27.8784V23.7871C32.4183 23.7462 32.4357 23.7075 32.4652 23.6791C32.4948 23.6506 32.5344 23.6348 32.5755 23.6348C32.6167 23.6348 32.6562 23.6506 32.6858 23.6791C32.7154 23.7075 32.7327 23.7462 32.7341 23.7871V27.9318C32.7342 27.9663 32.7228 27.9998 32.7018 28.0273L31.1535 30.0515C31.1387 30.0708 31.1196 30.0865 31.0977 30.0973C31.0757 30.1081 31.0516 30.1137 31.0271 30.1137Z" fill="url(#paint52_linear_1_307)"/>
<path d="M32.5758 28.5531C32.9211 28.5531 33.2011 28.275 33.2011 27.9318C33.2011 27.5887 32.9211 27.3105 32.5758 27.3105C32.2304 27.3105 31.9504 27.5887 31.9504 27.9318C31.9504 28.275 32.2304 28.5531 32.5758 28.5531Z" fill="url(#paint53_linear_1_307)"/>
<path d="M22.4864 10.8004H9.16121C8.71392 10.8004 8.35132 11.1607 8.35132 11.6051V12.6677C8.35132 13.1121 8.71392 13.4724 9.16121 13.4724H22.4864C22.9337 13.4724 23.2963 13.1121 23.2963 12.6677V11.6051C23.2963 11.1607 22.9337 10.8004 22.4864 10.8004Z" fill="url(#paint54_linear_1_307)"/>
<path d="M10.7917 10.8004H9.1614C9.05503 10.8004 8.94969 10.8212 8.85141 10.8616C8.75313 10.902 8.66382 10.9613 8.5886 11.036C8.51337 11.1108 8.4537 11.1995 8.41299 11.2971C8.37227 11.3948 8.35132 11.4994 8.35132 11.6051V12.6677C8.35132 12.7734 8.37227 12.878 8.41299 12.9757C8.4537 13.0733 8.51337 13.162 8.5886 13.2367C8.66382 13.3115 8.75313 13.3707 8.85141 13.4112C8.94969 13.4516 9.05503 13.4724 9.1614 13.4724H10.7917V10.8004Z" fill="url(#paint55_linear_1_307)"/>
<path d="M9.71254 12.5578C9.6015 12.5578 9.49293 12.5251 9.40059 12.4638C9.30825 12.4025 9.23629 12.3154 9.19381 12.2134C9.15133 12.1115 9.14024 11.9993 9.16195 11.8911C9.18366 11.7829 9.23719 11.6835 9.31577 11.6056C9.39434 11.5276 9.49443 11.4745 9.60337 11.4531C9.7123 11.4317 9.82519 11.4429 9.92773 11.4852C10.0303 11.5275 10.1179 11.5992 10.1794 11.691C10.241 11.7828 10.2738 11.8907 10.2736 12.0011C10.2732 12.1487 10.2139 12.2902 10.1088 12.3945C10.0036 12.4989 9.86116 12.5576 9.71254 12.5578ZM9.71254 11.5526C9.6235 11.5526 9.53644 11.5788 9.46237 11.6279C9.38829 11.677 9.33054 11.7468 9.29639 11.8285C9.26225 11.9103 9.25325 12.0002 9.27053 12.087C9.28781 12.1738 9.3306 12.2535 9.39349 12.3162C9.45638 12.3788 9.53655 12.4215 9.62386 12.4389C9.71117 12.4563 9.80171 12.4476 9.88404 12.4138C9.96636 12.3801 10.0368 12.3229 10.0864 12.2494C10.136 12.176 10.1626 12.0895 10.1628 12.0011C10.1629 11.8823 10.1155 11.7683 10.0311 11.6843C9.94665 11.6002 9.83208 11.5528 9.71254 11.5526Z" fill="url(#paint56_linear_1_307)"/>
<path d="M9.3143 12.3103L8.86938 12.7524L8.94776 12.8303L9.39268 12.3882L9.3143 12.3103Z" fill="url(#paint57_linear_1_307)"/>
<defs>
<linearGradient id="paint0_linear_1_307" x1="11.531" y1="20.1852" x2="33.5676" y2="20.1852" gradientUnits="userSpaceOnUse">
<stop stop-color="#3B6ECC"/>
<stop offset="0.09" stop-color="#3460B8"/>
<stop offset="0.16" stop-color="#3058AD"/>
<stop offset="0.82" stop-color="#3058AD"/>
<stop offset="0.89" stop-color="#2852A5"/>
<stop offset="1" stop-color="#133F8E"/>
</linearGradient>
<linearGradient id="paint1_linear_1_307" x1="13.3951" y1="22.2131" x2="14.3901" y2="22.2131" gradientUnits="userSpaceOnUse">
<stop stop-color="#FDFEFF"/>
<stop offset="0.16" stop-color="#F2F6FE"/>
<stop offset="0.82" stop-color="#F2F6FE"/>
<stop offset="0.89" stop-color="#EAF0FB"/>
<stop offset="0.99" stop-color="#D4DFF1"/>
<stop offset="1" stop-color="#D1DDF0"/>
</linearGradient>
<linearGradient id="paint2_linear_1_307" x1="330.266" y1="490.697" x2="354.251" y2="490.697" gradientUnits="userSpaceOnUse">
<stop stop-color="#FDFEFF"/>
<stop offset="0.16" stop-color="#F2F6FE"/>
<stop offset="0.82" stop-color="#F2F6FE"/>
<stop offset="0.89" stop-color="#EAF0FB"/>
<stop offset="0.99" stop-color="#D4DFF1"/>
<stop offset="1" stop-color="#D1DDF0"/>
</linearGradient>
<linearGradient id="paint3_linear_1_307" x1="456.127" y1="624.834" x2="488.251" y2="624.834" gradientUnits="userSpaceOnUse">
<stop stop-color="#FDFEFF"/>
<stop offset="0.16" stop-color="#F2F6FE"/>
<stop offset="0.82" stop-color="#F2F6FE"/>
<stop offset="0.89" stop-color="#EAF0FB"/>
<stop offset="0.99" stop-color="#D4DFF1"/>
<stop offset="1" stop-color="#D1DDF0"/>
</linearGradient>
<linearGradient id="paint4_linear_1_307" x1="390.844" y1="483.743" x2="410.804" y2="483.743" gradientUnits="userSpaceOnUse">
<stop stop-color="#FDFEFF"/>
<stop offset="0.16" stop-color="#F2F6FE"/>
<stop offset="0.82" stop-color="#F2F6FE"/>
<stop offset="0.89" stop-color="#EAF0FB"/>
<stop offset="0.99" stop-color="#D4DFF1"/>
<stop offset="1" stop-color="#D1DDF0"/>
</linearGradient>
<linearGradient id="paint5_linear_1_307" x1="814.01" y1="624.834" x2="881.875" y2="624.834" gradientUnits="userSpaceOnUse">
<stop stop-color="#FDFEFF"/>
<stop offset="0.16" stop-color="#F2F6FE"/>
<stop offset="0.82" stop-color="#F2F6FE"/>
<stop offset="0.89" stop-color="#EAF0FB"/>
<stop offset="0.99" stop-color="#D4DFF1"/>
<stop offset="1" stop-color="#D1DDF0"/>
</linearGradient>
<linearGradient id="paint6_linear_1_307" x1="513.383" y1="491.67" x2="535.412" y2="491.67" gradientUnits="userSpaceOnUse">
<stop stop-color="#FDFEFF"/>
<stop offset="0.16" stop-color="#F2F6FE"/>
<stop offset="0.82" stop-color="#F2F6FE"/>
<stop offset="0.89" stop-color="#EAF0FB"/>
<stop offset="0.99" stop-color="#D4DFF1"/>
<stop offset="1" stop-color="#D1DDF0"/>
</linearGradient>
<linearGradient id="paint7_linear_1_307" x1="1870.07" y1="1413.56" x2="2124.86" y2="1413.56" gradientUnits="userSpaceOnUse">
<stop stop-color="#FDFEFF"/>
<stop offset="0.16" stop-color="#F2F6FE"/>
<stop offset="0.82" stop-color="#F2F6FE"/>
<stop offset="0.89" stop-color="#EAF0FB"/>
<stop offset="0.99" stop-color="#D4DFF1"/>
<stop offset="1" stop-color="#D1DDF0"/>
</linearGradient>
<linearGradient id="paint8_linear_1_307" x1="691.855" y1="624.834" x2="723.979" y2="624.834" gradientUnits="userSpaceOnUse">
<stop stop-color="#3B6ECC"/>
<stop offset="0.09" stop-color="#3460B8"/>
<stop offset="0.16" stop-color="#3058AD"/>
<stop offset="0.82" stop-color="#3058AD"/>
<stop offset="0.89" stop-color="#2852A5"/>
<stop offset="1" stop-color="#133F8E"/>
</linearGradient>
<linearGradient id="paint9_linear_1_307" x1="579.258" y1="655.995" x2="599.218" y2="655.995" gradientUnits="userSpaceOnUse">
<stop stop-color="#3B6ECC"/>
<stop offset="0.09" stop-color="#3460B8"/>
<stop offset="0.16" stop-color="#3058AD"/>
<stop offset="0.82" stop-color="#3058AD"/>
<stop offset="0.89" stop-color="#2852A5"/>
<stop offset="1" stop-color="#133F8E"/>
</linearGradient>
<linearGradient id="paint10_linear_1_307" x1="660.851" y1="624.834" x2="681.374" y2="624.834" gradientUnits="userSpaceOnUse">
<stop stop-color="#FDFEFF"/>
<stop offset="0.16" stop-color="#F2F6FE"/>
<stop offset="0.82" stop-color="#F2F6FE"/>
<stop offset="0.89" stop-color="#EAF0FB"/>
<stop offset="0.99" stop-color="#D4DFF1"/>
<stop offset="1" stop-color="#D1DDF0"/>
</linearGradient>
<linearGradient id="paint11_linear_1_307" x1="451.046" y1="481.978" x2="459.594" y2="481.978" gradientUnits="userSpaceOnUse">
<stop stop-color="#FDFEFF"/>
<stop offset="0.16" stop-color="#F2F6FE"/>
<stop offset="0.82" stop-color="#F2F6FE"/>
<stop offset="0.89" stop-color="#EAF0FB"/>
<stop offset="0.99" stop-color="#D4DFF1"/>
<stop offset="1" stop-color="#D1DDF0"/>
</linearGradient>
<linearGradient id="paint12_linear_1_307" x1="877.115" y1="641.367" x2="905.593" y2="641.367" gradientUnits="userSpaceOnUse">
<stop stop-color="#FDFEFF"/>
<stop offset="0.16" stop-color="#F2F6FE"/>
<stop offset="0.82" stop-color="#F2F6FE"/>
<stop offset="0.89" stop-color="#EAF0FB"/>
<stop offset="0.99" stop-color="#D4DFF1"/>
<stop offset="1" stop-color="#D1DDF0"/>
</linearGradient>
<linearGradient id="paint13_linear_1_307" x1="788.92" y1="491.275" x2="810.077" y2="491.275" gradientUnits="userSpaceOnUse">
<stop stop-color="#FDFEFF"/>
<stop offset="0.16" stop-color="#F2F6FE"/>
<stop offset="0.82" stop-color="#F2F6FE"/>
<stop offset="0.89" stop-color="#EAF0FB"/>
<stop offset="0.99" stop-color="#D4DFF1"/>
<stop offset="1" stop-color="#D1DDF0"/>
</linearGradient>
<linearGradient id="paint14_linear_1_307" x1="987.972" y1="641.367" x2="1016.45" y2="641.367" gradientUnits="userSpaceOnUse">
<stop stop-color="#FDFEFF"/>
<stop offset="0.16" stop-color="#F2F6FE"/>
<stop offset="0.82" stop-color="#F2F6FE"/>
<stop offset="0.89" stop-color="#EAF0FB"/>
<stop offset="0.99" stop-color="#D4DFF1"/>
<stop offset="1" stop-color="#D1DDF0"/>
</linearGradient>
<linearGradient id="paint15_linear_1_307" x1="860.712" y1="483.267" x2="880.672" y2="483.267" gradientUnits="userSpaceOnUse">
<stop stop-color="#FDFEFF"/>
<stop offset="0.16" stop-color="#F2F6FE"/>
<stop offset="0.82" stop-color="#F2F6FE"/>
<stop offset="0.89" stop-color="#EAF0FB"/>
<stop offset="0.99" stop-color="#D4DFF1"/>
<stop offset="1" stop-color="#D1DDF0"/>
</linearGradient>
<linearGradient id="paint16_linear_1_307" x1="636.996" y1="983.767" x2="756.877" y2="983.767" gradientUnits="userSpaceOnUse">
<stop stop-color="#FDFEFF"/>
<stop offset="0.16" stop-color="#F2F6FE"/>
<stop offset="0.82" stop-color="#F2F6FE"/>
<stop offset="0.89" stop-color="#EAF0FB"/>
<stop offset="0.99" stop-color="#D4DFF1"/>
<stop offset="1" stop-color="#D1DDF0"/>
</linearGradient>
<linearGradient id="paint17_linear_1_307" x1="747.041" y1="997.911" x2="857.142" y2="997.911" gradientUnits="userSpaceOnUse">
<stop stop-color="#FDFEFF"/>
<stop offset="0.16" stop-color="#F2F6FE"/>
<stop offset="0.82" stop-color="#F2F6FE"/>
<stop offset="0.89" stop-color="#EAF0FB"/>
<stop offset="0.99" stop-color="#D4DFF1"/>
<stop offset="1" stop-color="#D1DDF0"/>
</linearGradient>
<linearGradient id="paint18_linear_1_307" x1="305.224" y1="779.436" x2="317.396" y2="779.436" gradientUnits="userSpaceOnUse">
<stop stop-color="#FDFEFF"/>
<stop offset="0.16" stop-color="#F2F6FE"/>
<stop offset="0.82" stop-color="#F2F6FE"/>
<stop offset="0.89" stop-color="#EAF0FB"/>
<stop offset="0.99" stop-color="#D4DFF1"/>
<stop offset="1" stop-color="#D1DDF0"/>
</linearGradient>
<linearGradient id="paint19_linear_1_307" x1="947.76" y1="986.931" x2="1058.07" y2="986.931" gradientUnits="userSpaceOnUse">
<stop stop-color="#FDFEFF"/>
<stop offset="0.16" stop-color="#F2F6FE"/>
<stop offset="0.82" stop-color="#F2F6FE"/>
<stop offset="0.89" stop-color="#EAF0FB"/>
<stop offset="0.99" stop-color="#D4DFF1"/>
<stop offset="1" stop-color="#D1DDF0"/>
</linearGradient>
<linearGradient id="paint20_linear_1_307" x1="1081.18" y1="986.931" x2="1191.52" y2="986.931" gradientUnits="userSpaceOnUse">
<stop stop-color="#FDFEFF"/>
<stop offset="0.16" stop-color="#F2F6FE"/>
<stop offset="0.82" stop-color="#F2F6FE"/>
<stop offset="0.89" stop-color="#EAF0FB"/>
<stop offset="0.99" stop-color="#D4DFF1"/>
<stop offset="1" stop-color="#D1DDF0"/>
</linearGradient>
<linearGradient id="paint21_linear_1_307" x1="6899.07" y1="8765.1" x2="33185.4" y2="8765.1" gradientUnits="userSpaceOnUse">
<stop stop-color="#FDFEFF"/>
<stop offset="0.16" stop-color="#F2F6FE"/>
<stop offset="0.82" stop-color="#F2F6FE"/>
<stop offset="0.89" stop-color="#EAF0FB"/>
<stop offset="0.99" stop-color="#D4DFF1"/>
<stop offset="1" stop-color="#D1DDF0"/>
</linearGradient>
<linearGradient id="paint22_linear_1_307" x1="13.3951" y1="32.1489" x2="14.3901" y2="32.1489" gradientUnits="userSpaceOnUse">
<stop stop-color="#FCAB72"/>
<stop offset="0.03" stop-color="#F8A367"/>
<stop offset="0.11" stop-color="#EE8C48"/>
<stop offset="0.16" stop-color="#EA833D"/>
<stop offset="0.82" stop-color="#EA833D"/>
<stop offset="0.88" stop-color="#E77D35"/>
<stop offset="0.98" stop-color="#DE6C1F"/>
<stop offset="1" stop-color="#DB6719"/>
</linearGradient>
<linearGradient id="paint23_linear_1_307" x1="330.266" y1="893.976" x2="354.251" y2="893.976" gradientUnits="userSpaceOnUse">
<stop stop-color="#FCAB72"/>
<stop offset="0.03" stop-color="#F8A367"/>
<stop offset="0.11" stop-color="#EE8C48"/>
<stop offset="0.16" stop-color="#EA833D"/>
<stop offset="0.82" stop-color="#EA833D"/>
<stop offset="0.88" stop-color="#E77D35"/>
<stop offset="0.98" stop-color="#DE6C1F"/>
<stop offset="1" stop-color="#DB6719"/>
</linearGradient>
<linearGradient id="paint24_linear_1_307" x1="456.127" y1="1142.92" x2="488.251" y2="1142.92" gradientUnits="userSpaceOnUse">
<stop stop-color="#FCAB72"/>
<stop offset="0.03" stop-color="#F8A367"/>
<stop offset="0.11" stop-color="#EE8C48"/>
<stop offset="0.16" stop-color="#EA833D"/>
<stop offset="0.82" stop-color="#EA833D"/>
<stop offset="0.88" stop-color="#E77D35"/>
<stop offset="0.98" stop-color="#DE6C1F"/>
<stop offset="1" stop-color="#DB6719"/>
</linearGradient>
<linearGradient id="paint25_linear_1_307" x1="390.844" y1="878.122" x2="410.804" y2="878.122" gradientUnits="userSpaceOnUse">
<stop stop-color="#FCAB72"/>
<stop offset="0.03" stop-color="#F8A367"/>
<stop offset="0.11" stop-color="#EE8C48"/>
<stop offset="0.16" stop-color="#EA833D"/>
<stop offset="0.82" stop-color="#EA833D"/>
<stop offset="0.88" stop-color="#E77D35"/>
<stop offset="0.98" stop-color="#DE6C1F"/>
<stop offset="1" stop-color="#DB6719"/>
</linearGradient>
<linearGradient id="paint26_linear_1_307" x1="814.01" y1="1143.35" x2="881.875" y2="1143.35" gradientUnits="userSpaceOnUse">
<stop stop-color="#FCAB72"/>
<stop offset="0.03" stop-color="#F8A367"/>
<stop offset="0.11" stop-color="#EE8C48"/>
<stop offset="0.16" stop-color="#EA833D"/>
<stop offset="0.82" stop-color="#EA833D"/>
<stop offset="0.88" stop-color="#E77D35"/>
<stop offset="0.98" stop-color="#DE6C1F"/>
<stop offset="1" stop-color="#DB6719"/>
</linearGradient>
<linearGradient id="paint27_linear_1_307" x1="513.391" y1="894.489" x2="535.42" y2="894.489" gradientUnits="userSpaceOnUse">
<stop stop-color="#FCAB72"/>
<stop offset="0.03" stop-color="#F8A367"/>
<stop offset="0.11" stop-color="#EE8C48"/>
<stop offset="0.16" stop-color="#EA833D"/>
<stop offset="0.82" stop-color="#EA833D"/>
<stop offset="0.88" stop-color="#E77D35"/>
<stop offset="0.98" stop-color="#DE6C1F"/>
<stop offset="1" stop-color="#DB6719"/>
</linearGradient>
<linearGradient id="paint28_linear_1_307" x1="2191.62" y1="2590.35" x2="2446.44" y2="2590.35" gradientUnits="userSpaceOnUse">
<stop stop-color="#FCAB72"/>
<stop offset="0.03" stop-color="#F8A367"/>
<stop offset="0.11" stop-color="#EE8C48"/>
<stop offset="0.16" stop-color="#EA833D"/>
<stop offset="0.82" stop-color="#EA833D"/>
<stop offset="0.88" stop-color="#E77D35"/>
<stop offset="0.98" stop-color="#DE6C1F"/>
<stop offset="1" stop-color="#DB6719"/>
</linearGradient>
<linearGradient id="paint29_linear_1_307" x1="691.855" y1="1142.92" x2="723.979" y2="1142.92" gradientUnits="userSpaceOnUse">
<stop stop-color="#FCAB72"/>
<stop offset="0.03" stop-color="#F8A367"/>
<stop offset="0.11" stop-color="#EE8C48"/>
<stop offset="0.16" stop-color="#EA833D"/>
<stop offset="0.82" stop-color="#EA833D"/>
<stop offset="0.88" stop-color="#E77D35"/>
<stop offset="0.98" stop-color="#DE6C1F"/>
<stop offset="1" stop-color="#DB6719"/>
</linearGradient>
<linearGradient id="paint30_linear_1_307" x1="579.258" y1="1202.47" x2="599.218" y2="1202.47" gradientUnits="userSpaceOnUse">
<stop stop-color="#FCAB72"/>
<stop offset="0.03" stop-color="#F8A367"/>
<stop offset="0.11" stop-color="#EE8C48"/>
<stop offset="0.16" stop-color="#EA833D"/>
<stop offset="0.82" stop-color="#EA833D"/>
<stop offset="0.88" stop-color="#E77D35"/>
<stop offset="0.98" stop-color="#DE6C1F"/>
<stop offset="1" stop-color="#DB6719"/>
</linearGradient>
<linearGradient id="paint31_linear_1_307" x1="660.851" y1="1142.92" x2="681.374" y2="1142.92" gradientUnits="userSpaceOnUse">
<stop stop-color="#FDFEFF"/>
<stop offset="0.16" stop-color="#F2F6FE"/>
<stop offset="0.82" stop-color="#F2F6FE"/>
<stop offset="0.89" stop-color="#EAF0FB"/>
<stop offset="0.99" stop-color="#D4DFF1"/>
<stop offset="1" stop-color="#D1DDF0"/>
</linearGradient>
<linearGradient id="paint32_linear_1_307" x1="451.046" y1="876.633" x2="459.594" y2="876.633" gradientUnits="userSpaceOnUse">
<stop stop-color="#FDFEFF"/>
<stop offset="0.16" stop-color="#F2F6FE"/>
<stop offset="0.82" stop-color="#F2F6FE"/>
<stop offset="0.89" stop-color="#EAF0FB"/>
<stop offset="0.99" stop-color="#D4DFF1"/>
<stop offset="1" stop-color="#D1DDF0"/>
</linearGradient>
<linearGradient id="paint33_linear_1_307" x1="877.079" y1="1172.97" x2="905.556" y2="1172.97" gradientUnits="userSpaceOnUse">
<stop stop-color="#FCAB72"/>
<stop offset="0.03" stop-color="#F8A367"/>
<stop offset="0.11" stop-color="#EE8C48"/>
<stop offset="0.16" stop-color="#EA833D"/>
<stop offset="0.82" stop-color="#EA833D"/>
<stop offset="0.88" stop-color="#E77D35"/>
<stop offset="0.98" stop-color="#DE6C1F"/>
<stop offset="1" stop-color="#DB6719"/>
</linearGradient>
<linearGradient id="paint34_linear_1_307" x1="788.898" y1="893.251" x2="810.055" y2="893.251" gradientUnits="userSpaceOnUse">
<stop stop-color="#FCAB72"/>
<stop offset="0.03" stop-color="#F8A367"/>
<stop offset="0.11" stop-color="#EE8C48"/>
<stop offset="0.16" stop-color="#EA833D"/>
<stop offset="0.82" stop-color="#EA833D"/>
<stop offset="0.88" stop-color="#E77D35"/>
<stop offset="0.98" stop-color="#DE6C1F"/>
<stop offset="1" stop-color="#DB6719"/>
</linearGradient>
<linearGradient id="paint35_linear_1_307" x1="987.982" y1="1172.97" x2="1016.46" y2="1172.97" gradientUnits="userSpaceOnUse">
<stop stop-color="#FCAB72"/>
<stop offset="0.03" stop-color="#F8A367"/>
<stop offset="0.11" stop-color="#EE8C48"/>
<stop offset="0.16" stop-color="#EA833D"/>
<stop offset="0.82" stop-color="#EA833D"/>
<stop offset="0.88" stop-color="#E77D35"/>
<stop offset="0.98" stop-color="#DE6C1F"/>
<stop offset="1" stop-color="#DB6719"/>
</linearGradient>
<linearGradient id="paint36_linear_1_307" x1="860.712" y1="877.815" x2="880.672" y2="877.815" gradientUnits="userSpaceOnUse">
<stop stop-color="#FCAB72"/>
<stop offset="0.03" stop-color="#F8A367"/>
<stop offset="0.11" stop-color="#EE8C48"/>
<stop offset="0.16" stop-color="#EA833D"/>
<stop offset="0.82" stop-color="#EA833D"/>
<stop offset="0.88" stop-color="#E77D35"/>
<stop offset="0.98" stop-color="#DE6C1F"/>
<stop offset="1" stop-color="#DB6719"/>
</linearGradient>
<linearGradient id="paint37_linear_1_307" x1="636.996" y1="2144.17" x2="756.877" y2="2144.17" gradientUnits="userSpaceOnUse">
<stop stop-color="#FCAB72"/>
<stop offset="0.03" stop-color="#F8A367"/>
<stop offset="0.11" stop-color="#EE8C48"/>
<stop offset="0.16" stop-color="#EA833D"/>
<stop offset="0.82" stop-color="#EA833D"/>
<stop offset="0.88" stop-color="#E77D35"/>
<stop offset="0.98" stop-color="#DE6C1F"/>
<stop offset="1" stop-color="#DB6719"/>
</linearGradient>
<linearGradient id="paint38_linear_1_307" x1="763.891" y1="2173.95" x2="880.164" y2="2173.95" gradientUnits="userSpaceOnUse">
<stop stop-color="#FCAB72"/>
<stop offset="0.03" stop-color="#F8A367"/>
<stop offset="0.11" stop-color="#EE8C48"/>
<stop offset="0.16" stop-color="#EA833D"/>
<stop offset="0.82" stop-color="#EA833D"/>
<stop offset="0.88" stop-color="#E77D35"/>
<stop offset="0.98" stop-color="#DE6C1F"/>
<stop offset="1" stop-color="#DB6719"/>
</linearGradient>
<linearGradient id="paint39_linear_1_307" x1="305.193" y1="1667.43" x2="317.363" y2="1667.43" gradientUnits="userSpaceOnUse">
<stop stop-color="#FCAB72"/>
<stop offset="0.03" stop-color="#F8A367"/>
<stop offset="0.11" stop-color="#EE8C48"/>
<stop offset="0.16" stop-color="#EA833D"/>
<stop offset="0.82" stop-color="#EA833D"/>
<stop offset="0.88" stop-color="#E77D35"/>
<stop offset="0.98" stop-color="#DE6C1F"/>
<stop offset="1" stop-color="#DB6719"/>
</linearGradient>
<linearGradient id="paint40_linear_1_307" x1="1016.19" y1="2116.67" x2="1144.89" y2="2116.67" gradientUnits="userSpaceOnUse">
<stop stop-color="#FCAB72"/>
<stop offset="0.03" stop-color="#F8A367"/>
<stop offset="0.11" stop-color="#EE8C48"/>
<stop offset="0.16" stop-color="#EA833D"/>
<stop offset="0.82" stop-color="#EA833D"/>
<stop offset="0.88" stop-color="#E77D35"/>
<stop offset="0.98" stop-color="#DE6C1F"/>
<stop offset="1" stop-color="#DB6719"/>
</linearGradient>
<linearGradient id="paint41_linear_1_307" x1="1081.18" y1="2147.09" x2="1191.52" y2="2147.09" gradientUnits="userSpaceOnUse">
<stop stop-color="#FCAB72"/>
<stop offset="0.03" stop-color="#F8A367"/>
<stop offset="0.11" stop-color="#EE8C48"/>
<stop offset="0.16" stop-color="#EA833D"/>
<stop offset="0.82" stop-color="#EA833D"/>
<stop offset="0.88" stop-color="#E77D35"/>
<stop offset="0.98" stop-color="#DE6C1F"/>
<stop offset="1" stop-color="#DB6719"/>
</linearGradient>
<linearGradient id="paint42_linear_1_307" x1="4119.79" y1="260.784" x2="4623.72" y2="260.784" gradientUnits="userSpaceOnUse">
<stop stop-color="#FDFEFF"/>
<stop offset="0.16" stop-color="#F2F6FE"/>
<stop offset="0.82" stop-color="#F2F6FE"/>
<stop offset="0.89" stop-color="#EAF0FB"/>
<stop offset="0.99" stop-color="#D4DFF1"/>
<stop offset="1" stop-color="#D1DDF0"/>
</linearGradient>
<linearGradient id="paint43_linear_1_307" x1="3344.59" y1="260.784" x2="3848.51" y2="260.784" gradientUnits="userSpaceOnUse">
<stop stop-color="#FDFEFF"/>
<stop offset="0.16" stop-color="#F2F6FE"/>
<stop offset="0.82" stop-color="#F2F6FE"/>
<stop offset="0.89" stop-color="#EAF0FB"/>
<stop offset="0.99" stop-color="#D4DFF1"/>
<stop offset="1" stop-color="#D1DDF0"/>
</linearGradient>
<linearGradient id="paint44_linear_1_307" x1="1905.07" y1="148.634" x2="2057.09" y2="148.634" gradientUnits="userSpaceOnUse">
<stop stop-color="#3B6ECC"/>
<stop offset="0.09" stop-color="#3460B8"/>
<stop offset="0.16" stop-color="#3058AD"/>
<stop offset="0.82" stop-color="#3058AD"/>
<stop offset="0.89" stop-color="#2852A5"/>
<stop offset="1" stop-color="#133F8E"/>
</linearGradient>
<linearGradient id="paint45_linear_1_307" x1="2090.38" y1="133.388" x2="2209.95" y2="133.388" gradientUnits="userSpaceOnUse">
<stop stop-color="#3B6ECC"/>
<stop offset="0.09" stop-color="#3460B8"/>
<stop offset="0.16" stop-color="#3058AD"/>
<stop offset="0.82" stop-color="#3058AD"/>
<stop offset="0.89" stop-color="#2852A5"/>
<stop offset="1" stop-color="#133F8E"/>
</linearGradient>
<linearGradient id="paint46_linear_1_307" x1="5.75671" y1="4741.14" x2="3921.98" y2="4741.14" gradientUnits="userSpaceOnUse">
<stop stop-color="#FCAB72"/>
<stop offset="0.03" stop-color="#F8A367"/>
<stop offset="0.11" stop-color="#EE8C48"/>
<stop offset="0.16" stop-color="#EA833D"/>
<stop offset="0.82" stop-color="#EA833D"/>
<stop offset="0.88" stop-color="#E77D35"/>
<stop offset="0.98" stop-color="#DE6C1F"/>
<stop offset="1" stop-color="#DB6719"/>
</linearGradient>
<linearGradient id="paint47_linear_1_307" x1="96.0037" y1="1062.08" x2="215.719" y2="1062.08" gradientUnits="userSpaceOnUse">
<stop stop-color="#FDFEFF"/>
<stop offset="0.16" stop-color="#F2F6FE"/>
<stop offset="0.82" stop-color="#F2F6FE"/>
<stop offset="0.89" stop-color="#EAF0FB"/>
<stop offset="0.99" stop-color="#D4DFF1"/>
<stop offset="1" stop-color="#D1DDF0"/>
</linearGradient>
<linearGradient id="paint48_linear_1_307" x1="291.764" y1="1062.08" x2="411.479" y2="1062.08" gradientUnits="userSpaceOnUse">
<stop stop-color="#FDFEFF"/>
<stop offset="0.16" stop-color="#F2F6FE"/>
<stop offset="0.82" stop-color="#F2F6FE"/>
<stop offset="0.89" stop-color="#EAF0FB"/>
<stop offset="0.99" stop-color="#D4DFF1"/>
<stop offset="1" stop-color="#D1DDF0"/>
</linearGradient>
<linearGradient id="paint49_linear_1_307" x1="487.527" y1="1062.08" x2="607.242" y2="1062.08" gradientUnits="userSpaceOnUse">
<stop stop-color="#FDFEFF"/>
<stop offset="0.16" stop-color="#F2F6FE"/>
<stop offset="0.82" stop-color="#F2F6FE"/>
<stop offset="0.89" stop-color="#EAF0FB"/>
<stop offset="0.99" stop-color="#D4DFF1"/>
<stop offset="1" stop-color="#D1DDF0"/>
</linearGradient>
<linearGradient id="paint50_linear_1_307" x1="14028.8" y1="11961" x2="22636.6" y2="11961" gradientUnits="userSpaceOnUse">
<stop stop-color="#3B6ECC"/>
<stop offset="0.09" stop-color="#3460B8"/>
<stop offset="0.16" stop-color="#3058AD"/>
<stop offset="0.82" stop-color="#3058AD"/>
<stop offset="0.89" stop-color="#2852A5"/>
<stop offset="1" stop-color="#133F8E"/>
</linearGradient>
<linearGradient id="paint51_linear_1_307" x1="12023.5" y1="9684.86" x2="17660.8" y2="9684.86" gradientUnits="userSpaceOnUse">
<stop stop-color="#FDFEFF"/>
<stop offset="0.16" stop-color="#F2F6FE"/>
<stop offset="0.82" stop-color="#F2F6FE"/>
<stop offset="0.89" stop-color="#EAF0FB"/>
<stop offset="0.99" stop-color="#D4DFF1"/>
<stop offset="1" stop-color="#D1DDF0"/>
</linearGradient>
<linearGradient id="paint52_linear_1_307" x1="2566.8" y1="5823.31" x2="2755.18" y2="5823.31" gradientUnits="userSpaceOnUse">
<stop stop-color="#3B6ECC"/>
<stop offset="0.09" stop-color="#3460B8"/>
<stop offset="0.16" stop-color="#3058AD"/>
<stop offset="0.82" stop-color="#3058AD"/>
<stop offset="0.89" stop-color="#2852A5"/>
<stop offset="1" stop-color="#133F8E"/>
</linearGradient>
<linearGradient id="paint53_linear_1_307" x1="1805.24" y1="1211.45" x2="1889.9" y2="1211.45" gradientUnits="userSpaceOnUse">
<stop stop-color="#3B6ECC"/>
<stop offset="0.09" stop-color="#3460B8"/>
<stop offset="0.16" stop-color="#3058AD"/>
<stop offset="0.82" stop-color="#3058AD"/>
<stop offset="0.89" stop-color="#2852A5"/>
<stop offset="1" stop-color="#133F8E"/>
</linearGradient>
<linearGradient id="paint54_linear_1_307" x1="2107.23" y1="257.635" x2="14197.6" y2="257.635" gradientUnits="userSpaceOnUse">
<stop stop-color="#FDFEFF"/>
<stop offset="0.16" stop-color="#F2F6FE"/>
<stop offset="0.82" stop-color="#F2F6FE"/>
<stop offset="0.89" stop-color="#EAF0FB"/>
<stop offset="0.99" stop-color="#D4DFF1"/>
<stop offset="1" stop-color="#D1DDF0"/>
</linearGradient>
<linearGradient id="paint55_linear_1_307" x1="351.082" y1="257.635" x2="673.459" y2="257.635" gradientUnits="userSpaceOnUse">
<stop stop-color="#3B6ECC"/>
<stop offset="0.09" stop-color="#3460B8"/>
<stop offset="0.16" stop-color="#3058AD"/>
<stop offset="0.82" stop-color="#3058AD"/>
<stop offset="0.89" stop-color="#2852A5"/>
<stop offset="1" stop-color="#133F8E"/>
</linearGradient>
<linearGradient id="paint56_linear_1_307" x1="215.417" y1="106.184" x2="283.607" y2="106.184" gradientUnits="userSpaceOnUse">
<stop stop-color="#FDFEFF"/>
<stop offset="0.16" stop-color="#F2F6FE"/>
<stop offset="0.82" stop-color="#F2F6FE"/>
<stop offset="0.89" stop-color="#EAF0FB"/>
<stop offset="0.99" stop-color="#D4DFF1"/>
<stop offset="1" stop-color="#D1DDF0"/>
</linearGradient>
<linearGradient id="paint57_linear_1_307" x1="114.82" y1="25.2928" x2="132.645" y2="25.2928" gradientUnits="userSpaceOnUse">
<stop stop-color="#FDFEFF"/>
<stop offset="0.16" stop-color="#F2F6FE"/>
<stop offset="0.82" stop-color="#F2F6FE"/>
<stop offset="0.89" stop-color="#EAF0FB"/>
<stop offset="0.99" stop-color="#D4DFF1"/>
<stop offset="1" stop-color="#D1DDF0"/>
</linearGradient>
</defs>
</svg>
