<svg width="46" height="46" viewBox="0 0 46 46" fill="none" xmlns="http://www.w3.org/2000/svg">
<g clip-path="url(#clip0_1_182)">
<path d="M12.9375 11.5001C12.9375 11.1034 13.2595 10.7814 13.6562 10.7814C14.053 10.7814 14.375 11.1034 14.375 11.5001C14.375 11.8969 14.053 12.2189 13.6562 12.2189C13.2595 12.2189 12.9375 11.8969 12.9375 11.5001ZM17.9687 12.2189C18.3655 12.2189 18.6875 11.8969 18.6875 11.5001C18.6875 11.1034 18.3655 10.7814 17.9687 10.7814C17.572 10.7814 17.25 11.1034 17.25 11.5001C17.25 11.8969 17.572 12.2189 17.9687 12.2189ZM15.8125 16.5314C17.3981 16.5314 18.6875 15.2419 18.6875 13.6564H17.25C17.25 14.4491 16.6053 15.0939 15.8125 15.0939C15.0197 15.0939 14.375 14.4491 14.375 13.6564H12.9375C12.9375 15.2419 14.2269 16.5314 15.8125 16.5314ZM43.4606 25.6652C43.0567 26.2474 42.3933 26.5939 41.6868 26.5939C41.2476 26.5939 40.8236 26.4609 40.4606 26.2108L38.5846 24.912L34.8184 30.3515C33.9545 31.5992 32.5335 32.3439 31.0162 32.3439C30.3636 32.3439 29.7311 32.2095 29.1374 31.9442L24.4375 29.8563V45.2814H7.1875V38.0939H6.46875C4.48716 38.0939 2.875 36.4817 2.875 34.5001V28.0774C2.875 25.5567 4.12706 23.2172 6.22366 21.8199C7.15228 21.2011 8.22681 20.7907 9.33153 20.6325L12.3567 20.2006L12.7729 18.5381C12.0117 18.0479 11.3828 17.3673 10.9236 16.5306H10.0625C8.47694 16.5306 7.1875 15.2412 7.1875 13.6556V9.34314V8.62439V7.90564C7.1875 3.94245 10.4118 0.71814 14.375 0.71814H17.25C20.1178 0.71814 22.7046 2.43164 23.8395 5.03064H25.1562C26.3451 5.03064 27.3125 5.99808 27.3125 7.18689C27.3125 8.3757 26.3451 9.34314 25.1562 9.34314H24.4375V13.6556C24.4375 15.2412 23.1481 16.5306 21.5625 16.5306H20.7014C20.2429 17.3665 19.614 18.0479 18.8521 18.5381L19.2682 20.2006L21.7005 20.547C23.1991 20.7619 24.6467 21.334 25.8858 22.2016L30.7294 25.5926L33.6145 21.4713L33.2602 21.2262C32.7319 21.4498 32.1835 21.5626 31.625 21.5626C29.2467 21.5626 27.3125 19.6285 27.3125 17.2501C27.3125 17.1049 27.329 16.9648 27.3492 16.8246L27.3621 16.7297C27.3923 16.4803 27.5518 16.2647 27.7811 16.1619C28.0104 16.0577 28.2771 16.0836 28.4848 16.2266L29.7792 17.1229C30.0948 17.3414 30.5612 17.2559 30.7797 16.9403C31.0047 16.6155 30.9228 16.167 30.5972 15.9405L29.1302 14.925C28.9376 14.7913 28.8226 14.5742 28.8204 14.3406C28.8183 14.107 28.9297 13.8864 29.1202 13.7505C29.8605 13.2186 30.7266 12.9376 31.625 12.9376C34.0033 12.9376 35.9375 14.8718 35.9375 17.2501C35.9375 17.4298 35.9231 17.6138 35.8951 17.805L42.9151 22.6645C43.8926 23.3422 44.137 24.6885 43.4606 25.6652ZM12.9375 21.7423V24.8588L14.7186 23.0777L12.9375 21.7423ZM13.9538 25.8751H17.6712L15.8125 24.0164L13.9538 25.8751ZM16.9064 23.0777L18.6875 24.8588V21.7423L16.9064 23.0777ZM23 13.6564C23 12.8636 22.3553 12.2189 21.5625 12.2189V12.9376C21.5625 13.7088 21.4612 14.4297 21.2786 15.0939H21.5625C22.3553 15.0939 23 14.4491 23 13.6564ZM23 9.34386H21.5625V10.7814C22.0886 10.7814 22.5752 10.9337 23 11.181V9.34386ZM17.9687 6.46886C17.0315 6.46886 16.2322 7.06973 15.9354 7.90636H25.1562C25.553 7.90636 25.875 7.58436 25.875 7.18761C25.875 6.79086 25.553 6.46886 25.1562 6.46886H17.9687ZM8.625 7.90636H14.4476C14.7811 6.26833 16.233 5.03136 17.9687 5.03136H22.2317C21.2175 3.27833 19.3265 2.15636 17.25 2.15636H14.375C11.2046 2.15636 8.625 4.73595 8.625 7.90636ZM8.625 9.34386V11.181C9.04978 10.9337 9.53637 10.7814 10.0625 10.7814V9.34386H8.625ZM10.3464 15.0939C10.1638 14.4297 10.0625 13.7088 10.0625 12.9376V12.2189C9.26972 12.2189 8.625 12.8636 8.625 13.6564C8.625 14.4491 9.26972 15.0939 10.0625 15.0939H10.3464ZM15.8125 17.9689C18.4323 17.9689 20.125 15.9937 20.125 12.9376V9.34386H11.5V12.9376C11.5 15.9937 13.1927 17.9689 15.8125 17.9689ZM14.0997 19.1555L13.7504 20.5556L15.8125 22.1017L17.8746 20.5556L17.5253 19.1555C16.9912 19.318 16.4191 19.4064 15.8125 19.4064C15.2059 19.4064 14.6337 19.318 14.0997 19.1555ZM8.625 22.2684V32.3439H10.0625V28.7501H21.5625V39.5314H23V22.3475C22.5098 22.1793 22.0088 22.0442 21.4964 21.9709L20.125 21.7754V27.3126H11.5V21.7754L9.53566 22.0564C9.22659 22.1002 8.924 22.1771 8.625 22.2684ZM20.125 40.9689V30.1876H11.5V32.3439H14.375C15.9606 32.3439 17.25 33.6333 17.25 35.2189C17.25 36.8044 15.9606 38.0939 14.375 38.0939H11.5V40.9689H20.125ZM12.9375 33.7814V36.6564H14.375C15.1678 36.6564 15.8125 36.0116 15.8125 35.2189C15.8125 34.4261 15.1678 33.7814 14.375 33.7814H12.9375ZM6.46875 36.6564H11.5V33.7814H7.1875V33.0626V32.3439V22.9182C7.13287 22.952 7.07466 22.98 7.02147 23.0159C5.32522 24.1472 4.3125 26.039 4.3125 28.0774V34.5001C4.3125 35.6889 5.27994 36.6564 6.46875 36.6564ZM8.625 38.0939V39.5314H10.0625V38.0939H8.625ZM8.625 43.8439H15.0937V42.4064H10.0625V40.9689H8.625V43.8439ZM23 43.8439V40.9689H21.5625V42.4064H16.5312V43.8439H23ZM35.7298 26.5098L33.1394 24.6575L31.0831 27.5951L25.0614 23.3803C24.8616 23.2402 24.6495 23.118 24.4375 22.9965V28.2836L29.7225 30.6318C30.1314 30.8136 30.5663 30.9064 31.0162 30.9064C32.0613 30.9064 33.0402 30.3932 33.6361 29.5335L35.7298 26.5098ZM37.4023 24.094L34.7961 22.29L33.9638 23.4795L36.5484 25.3274L37.4023 24.094ZM42.394 24.309C42.3595 24.1192 42.2539 23.9553 42.0965 23.8461L34.6883 18.7178C34.4418 18.5475 34.3268 18.2413 34.4008 17.9502C34.4684 17.685 34.5 17.4629 34.5 17.2501C34.5 15.6645 33.2106 14.3751 31.625 14.3751C31.4029 14.3751 31.1844 14.401 30.9709 14.452L31.4144 14.7589C32.3919 15.436 32.6363 16.7822 31.9599 17.7597C31.3059 18.7034 29.9072 18.9586 28.9599 18.3052L28.9462 18.2959C29.366 19.3654 30.4089 20.1251 31.625 20.1251C32.0872 20.1251 32.5436 20.0044 32.9827 19.7657C33.0898 19.7075 33.2077 19.6788 33.3263 19.6788C33.4693 19.6788 33.6123 19.7219 33.7352 19.8067L41.2792 25.0291C41.5948 25.2476 42.0612 25.1614 42.2797 24.8466C42.3876 24.6899 42.4285 24.4987 42.394 24.309Z" fill="url(#paint0_linear_1_182)"/>
</g>
<defs>
<linearGradient id="paint0_linear_1_182" x1="-0.407826" y1="5.32568" x2="47.7726" y2="52.0536" gradientUnits="userSpaceOnUse">
<stop stop-color="#003A92"/>
<stop offset="1" stop-color="#74A0E3"/>
</linearGradient>
<clipPath id="clip0_1_182">
<rect width="46" height="46" fill="white"/>
</clipPath>
</defs>
</svg>
