<svg width="46" height="46" viewBox="0 0 46 46" fill="none" xmlns="http://www.w3.org/2000/svg">
<g clip-path="url(#clip0_1_110)">
<path d="M8.625 35.9375C8.19854 35.9375 7.78165 36.064 7.42705 36.3009C7.07246 36.5378 6.79609 36.8746 6.63289 37.2686C6.46968 37.6626 6.42698 38.0961 6.51018 38.5144C6.59338 38.9327 6.79875 39.3169 7.1003 39.6184C7.40186 39.92 7.78607 40.1254 8.20434 40.2086C8.62261 40.2918 9.05616 40.2491 9.45016 40.0859C9.84417 39.9227 10.1809 39.6463 10.4179 39.2917C10.6548 38.9371 10.7813 38.5202 10.7813 38.0937C10.7806 37.5221 10.5532 36.974 10.149 36.5698C9.74476 36.1655 9.19668 35.9381 8.625 35.9375ZM8.625 38.8125C8.48285 38.8125 8.34388 38.7703 8.22569 38.6914C8.10749 38.6124 8.01536 38.5001 7.96096 38.3688C7.90656 38.2375 7.89233 38.093 7.92006 37.9535C7.9478 37.8141 8.01625 37.686 8.11677 37.5855C8.21729 37.485 8.34536 37.4165 8.48478 37.3888C8.6242 37.3611 8.76872 37.3753 8.90006 37.4297C9.03139 37.4841 9.14364 37.5762 9.22262 37.6944C9.3016 37.8126 9.34375 37.9516 9.34375 38.0937C9.34354 38.2843 9.26774 38.467 9.133 38.6017C8.99825 38.7365 8.81556 38.8123 8.625 38.8125Z" fill="url(#paint0_linear_1_110)"/>
<path d="M38.0938 35.9375C37.6673 35.9375 37.2504 36.064 36.8958 36.3009C36.5412 36.5378 36.2648 36.8746 36.1016 37.2686C35.9384 37.6626 35.8957 38.0961 35.9789 38.5144C36.0621 38.9327 36.2675 39.3169 36.5691 39.6184C36.8706 39.92 37.2548 40.1254 37.6731 40.2086C38.0914 40.2918 38.5249 40.2491 38.9189 40.0859C39.3129 39.9227 39.6497 39.6463 39.8866 39.2917C40.1235 38.9371 40.25 38.5202 40.25 38.0937C40.2494 37.5221 40.022 36.974 39.6177 36.5698C39.2135 36.1655 38.6654 35.9381 38.0938 35.9375ZM38.0938 38.8125C37.9516 38.8125 37.8126 38.7703 37.6944 38.6914C37.5762 38.6124 37.4841 38.5001 37.4297 38.3688C37.3753 38.2375 37.3611 38.093 37.3888 37.9535C37.4165 37.8141 37.485 37.686 37.5855 37.5855C37.686 37.485 37.8141 37.4165 37.9535 37.3888C38.093 37.3611 38.2375 37.3753 38.3688 37.4297C38.5001 37.4841 38.6124 37.5762 38.6914 37.6944C38.7703 37.8126 38.8125 37.9516 38.8125 38.0937C38.8123 38.2843 38.7365 38.467 38.6017 38.6017C38.467 38.7365 38.2843 38.8123 38.0938 38.8125Z" fill="url(#paint1_linear_1_110)"/>
<path d="M10.7812 30.9062H12.9375C13.1281 30.9062 13.3109 30.8305 13.4457 30.6957C13.5805 30.5609 13.6562 30.3781 13.6562 30.1875C13.6562 29.9969 13.5805 29.8141 13.4457 29.6793C13.3109 29.5445 13.1281 29.4688 12.9375 29.4688H10.7812C10.5906 29.4688 10.4078 29.5445 10.273 29.6793C10.1382 29.8141 10.0625 29.9969 10.0625 30.1875C10.0625 30.3781 10.1382 30.5609 10.273 30.6957C10.4078 30.8305 10.5906 30.9062 10.7812 30.9062Z" fill="url(#paint2_linear_1_110)"/>
<path d="M42.7656 8.625H17.6094C16.9424 8.62574 16.303 8.89101 15.8314 9.36262C15.3598 9.83424 15.0945 10.4737 15.0938 11.1406V18.6875H7.1875C7.06919 18.6877 6.95273 18.717 6.84839 18.7727C6.74405 18.8285 6.65502 18.9091 6.58914 19.0074L0.839141 27.6324C0.760824 27.7507 0.718963 27.8894 0.71875 28.0313V36.2969C0.719487 36.9639 0.984762 37.6033 1.45637 38.0749C1.92799 38.5465 2.56742 38.8118 3.23438 38.8125H4.37359C4.54328 39.8173 5.06337 40.7296 5.84162 41.3874C6.61987 42.0452 7.60597 42.4062 8.625 42.4062C9.64403 42.4062 10.6301 42.0452 11.4084 41.3874C12.1866 40.7296 12.7067 39.8173 12.8764 38.8125H33.8423C34.012 39.8173 34.5321 40.7296 35.3104 41.3874C36.0886 42.0452 37.0747 42.4062 38.0938 42.4062C39.1128 42.4062 40.0989 42.0452 40.8771 41.3874C41.6554 40.7296 42.1755 39.8173 42.3452 38.8125H42.7656C43.4326 38.8118 44.072 38.5465 44.5436 38.0749C45.0152 37.6033 45.2805 36.9639 45.2812 36.2969V11.1406C45.2805 10.4737 45.0152 9.83424 44.5436 9.36262C44.072 8.89101 43.4326 8.62574 42.7656 8.625ZM6.13453 22.2813H12.2188V27.3125H2.78066L6.13453 22.2813ZM2.15625 31.625H3.59375C3.78437 31.625 3.96719 31.7007 4.10198 31.8355C4.23677 31.9703 4.3125 32.1531 4.3125 32.3438C4.3125 32.5344 4.23677 32.7172 4.10198 32.852C3.96719 32.9868 3.78437 33.0625 3.59375 33.0625H2.15625V31.625ZM8.625 40.9688C8.05638 40.9688 7.50053 40.8002 7.02774 40.4843C6.55494 40.1683 6.18645 39.7193 5.96885 39.194C5.75124 38.6687 5.69431 38.0906 5.80524 37.5329C5.91617 36.9752 6.18999 36.4629 6.59207 36.0608C6.99414 35.6588 7.50642 35.385 8.06412 35.274C8.62181 35.1631 9.19988 35.22 9.72521 35.4376C10.2506 35.6552 10.6996 36.0237 11.0155 36.4965C11.3314 36.9693 11.5 37.5252 11.5 38.0938C11.4991 38.856 11.196 39.5868 10.657 40.1258C10.118 40.6647 9.38723 40.9679 8.625 40.9688ZM15.0938 37.375H12.8764C12.7067 36.3702 12.1866 35.458 11.4084 34.8001C10.6301 34.1423 9.64403 33.7814 8.625 33.7814C7.60597 33.7814 6.61987 34.1423 5.84162 34.8001C5.06337 35.458 4.54328 36.3702 4.37359 37.375H3.23438C2.94851 37.3748 2.67442 37.2611 2.47229 37.059C2.27015 36.8569 2.15649 36.5828 2.15625 36.2969V34.5H3.59375C4.16562 34.5 4.71407 34.2728 5.11845 33.8685C5.52282 33.4641 5.75 32.9156 5.75 32.3438C5.75 31.7719 5.52282 31.2234 5.11845 30.8191C4.71407 30.4147 4.16562 30.1875 3.59375 30.1875H2.15625V28.75H12.9375C13.1281 28.75 13.3109 28.6743 13.4457 28.5395C13.5805 28.4047 13.6562 28.2219 13.6562 28.0313V21.5625C13.6562 21.3719 13.5805 21.1891 13.4457 21.0543C13.3109 20.9195 13.1281 20.8438 12.9375 20.8438H7.09316L7.57203 20.125H15.0938V37.375ZM38.0938 40.9688C37.5251 40.9688 36.9693 40.8002 36.4965 40.4843C36.0237 40.1683 35.6552 39.7193 35.4376 39.194C35.22 38.6687 35.1631 38.0906 35.274 37.5329C35.3849 36.9752 35.6587 36.4629 36.0608 36.0608C36.4629 35.6588 36.9752 35.385 37.5329 35.274C38.0906 35.1631 38.6686 35.22 39.194 35.4376C39.7193 35.6552 40.1683 36.0237 40.4842 36.4965C40.8001 36.9693 40.9688 37.5252 40.9688 38.0938C40.9679 38.856 40.6647 39.5868 40.1257 40.1258C39.5868 40.6647 38.856 40.9679 38.0938 40.9688ZM43.8438 36.2969C43.8435 36.5828 43.7298 36.8569 43.5277 37.059C43.3256 37.2611 43.0515 37.3748 42.7656 37.375H42.3452C42.1755 36.3702 41.6554 35.458 40.8771 34.8001C40.0989 34.1423 39.1128 33.7814 38.0938 33.7814C37.0747 33.7814 36.0886 34.1423 35.3104 34.8001C34.5321 35.458 34.012 36.3702 33.8423 37.375H16.5312V31.625H43.8438V36.2969ZM43.8438 30.1875H16.5312V11.1406C16.5315 10.8548 16.6452 10.5807 16.8473 10.3785C17.0494 10.1764 17.3235 10.0627 17.6094 10.0625H42.7656C43.0515 10.0627 43.3256 10.1764 43.5277 10.3785C43.7298 10.5807 43.8435 10.8548 43.8438 11.1406V30.1875Z" fill="url(#paint3_linear_1_110)"/>
<path d="M40.9688 21.5624H31.625V20.8436H35.9375C36.1281 20.8436 36.3109 20.7679 36.4457 20.6331C36.5805 20.4983 36.6562 20.3155 36.6562 20.1249C36.6562 19.9342 36.5805 19.7514 36.4457 19.6166C36.3109 19.4818 36.1281 19.4061 35.9375 19.4061H31.625V17.9686C31.625 17.8467 31.5941 17.7269 31.535 17.6203C31.4759 17.5137 31.3906 17.424 31.2872 17.3595L25.5372 13.7657C25.4231 13.694 25.291 13.6559 25.1562 13.6559C25.0215 13.6559 24.8894 13.694 24.7753 13.7657L19.0253 17.3595C18.9219 17.424 18.8366 17.5137 18.7775 17.6203C18.7184 17.7269 18.6875 17.8467 18.6875 17.9686V25.8748C18.6875 26.0655 18.7632 26.2483 18.898 26.3831C19.0328 26.5179 19.2156 26.5936 19.4063 26.5936H30.9062C31.0969 26.5936 31.2797 26.5179 31.4145 26.3831C31.5493 26.2483 31.625 26.0655 31.625 25.8748V25.1561H34.5C34.6906 25.1561 34.8734 25.0804 35.0082 24.9456C35.143 24.8108 35.2188 24.628 35.2188 24.4373C35.2188 24.2467 35.143 24.0639 35.0082 23.9291C34.8734 23.7943 34.6906 23.7186 34.5 23.7186H31.625V22.9998H40.9688C41.1594 22.9998 41.3422 22.9241 41.477 22.7893C41.6118 22.6545 41.6875 22.4717 41.6875 22.2811C41.6875 22.0905 41.6118 21.9077 41.477 21.7729C41.3422 21.6381 41.1594 21.5624 40.9688 21.5624ZM25.875 25.1561H24.4375V22.2811H25.875V25.1561ZM30.1875 25.1561H27.3125V21.5624C27.3125 21.3717 27.2368 21.1889 27.102 21.0541C26.9672 20.9193 26.7844 20.8436 26.5938 20.8436H23.7188C23.5281 20.8436 23.3453 20.9193 23.2105 21.0541C23.0757 21.1889 23 21.3717 23 21.5624V25.1561H20.125V18.3666L25.1562 15.2221L30.1875 18.3666V25.1561Z" fill="url(#paint4_linear_1_110)"/>
<path d="M38.0938 20.8438H38.8125C39.0031 20.8438 39.1859 20.768 39.3207 20.6332C39.4555 20.4984 39.5312 20.3156 39.5312 20.125C39.5312 19.9344 39.4555 19.7516 39.3207 19.6168C39.1859 19.482 39.0031 19.4062 38.8125 19.4062H38.0938C37.9031 19.4062 37.7203 19.482 37.5855 19.6168C37.4507 19.7516 37.375 19.9344 37.375 20.125C37.375 20.3156 37.4507 20.4984 37.5855 20.6332C37.7203 20.768 37.9031 20.8438 38.0938 20.8438Z" fill="url(#paint5_linear_1_110)"/>
</g>
<defs>
<linearGradient id="paint0_linear_1_110" x1="6.12318" y1="36.3834" x2="10.7812" y2="41.2975" gradientUnits="userSpaceOnUse">
<stop stop-color="#003A92"/>
<stop offset="1" stop-color="#74A0E3"/>
</linearGradient>
<linearGradient id="paint1_linear_1_110" x1="35.5919" y1="36.3834" x2="40.25" y2="41.2975" gradientUnits="userSpaceOnUse">
<stop stop-color="#003A92"/>
<stop offset="1" stop-color="#74A0E3"/>
</linearGradient>
<linearGradient id="paint2_linear_1_110" x1="11.8594" y1="29.4688" x2="11.8594" y2="30.9062" gradientUnits="userSpaceOnUse">
<stop stop-color="#283B77"/>
<stop offset="1" stop-color="#74CBE3"/>
</linearGradient>
<linearGradient id="paint3_linear_1_110" x1="-2.8521" y1="12.1178" x2="31.7796" y2="60.3131" gradientUnits="userSpaceOnUse">
<stop stop-color="#003A92"/>
<stop offset="1" stop-color="#74A0E3"/>
</linearGradient>
<linearGradient id="paint4_linear_1_110" x1="16.8445" y1="14.9936" x2="28.4646" y2="36.7865" gradientUnits="userSpaceOnUse">
<stop stop-color="#003A92"/>
<stop offset="1" stop-color="#74A0E3"/>
</linearGradient>
<linearGradient id="paint5_linear_1_110" x1="38.4531" y1="19.4062" x2="38.4531" y2="20.8438" gradientUnits="userSpaceOnUse">
<stop stop-color="#283B77"/>
<stop offset="1" stop-color="#74CBE3"/>
</linearGradient>
<clipPath id="clip0_1_110">
<rect width="46" height="46" fill="white"/>
</clipPath>
</defs>
</svg>
