<svg width="40" height="45" viewBox="0 0 40 45" fill="none" xmlns="http://www.w3.org/2000/svg">
<path d="M22.3338 44.5633H17.5481C17.4958 44.5633 17.4434 44.5579 17.3922 44.5476C17.3409 44.5374 17.2913 44.5223 17.2427 44.5023C17.1941 44.4823 17.1483 44.458 17.1045 44.4289C17.0614 44.3997 17.0209 44.3668 16.9837 44.3301C16.947 44.2929 16.914 44.253 16.8849 44.2093C16.8558 44.1661 16.8309 44.1202 16.811 44.0716C16.791 44.0236 16.7759 43.974 16.7656 43.9227C16.7554 43.8714 16.7505 43.8196 16.7505 43.7673V35.8571C16.4419 35.7049 16.1461 35.5311 15.8633 35.3358C15.58 35.141 15.3124 34.9267 15.0598 34.6931C14.8078 34.4599 14.5736 34.2095 14.3572 33.943C14.1408 33.6758 13.9449 33.3947 13.7695 33.0995C13.5936 32.8043 13.4398 32.4983 13.3081 32.181C13.1764 31.8642 13.0685 31.5393 12.9838 31.2064C12.8991 30.874 12.8381 30.5367 12.8019 30.1956C12.7658 29.854 12.7544 29.5119 12.7674 29.1687C12.7803 28.826 12.8181 28.4855 12.8802 28.1476C12.9422 27.8104 13.028 27.479 13.1381 27.1536C13.2477 26.8282 13.3804 26.5125 13.5358 26.206C13.6913 25.9 13.8677 25.6064 14.0652 25.3253C14.2633 25.0447 14.4797 24.7792 14.7161 24.5293C14.9519 24.2794 15.2044 24.0474 15.4737 23.8342C15.743 23.6205 16.0263 23.4268 16.3237 23.2541C16.6205 23.0809 16.9286 22.9303 17.2476 22.8013C17.2778 22.7889 17.3085 22.7787 17.3398 22.77C17.3717 22.7619 17.4035 22.7555 17.4354 22.7506C17.4677 22.7463 17.5001 22.7436 17.5325 22.7431C17.5654 22.7425 17.5978 22.7436 17.6302 22.7468C17.6625 22.7506 17.6944 22.7555 17.7262 22.763C17.7581 22.77 17.7894 22.7792 17.8201 22.7905C17.8503 22.8013 17.8806 22.8143 17.9092 22.8294C17.9383 22.844 17.9664 22.8602 17.9933 22.8785C18.0203 22.8963 18.0462 22.9163 18.0711 22.9373C18.0953 22.9589 18.1185 22.9816 18.1401 23.0059C18.1623 23.0296 18.1822 23.055 18.2011 23.082C18.22 23.1084 18.2367 23.1359 18.2518 23.1645C18.2675 23.1937 18.281 23.2228 18.2923 23.253C18.3042 23.2838 18.3139 23.3145 18.322 23.3458C18.3296 23.3777 18.3355 23.4095 18.3398 23.4419C18.3436 23.4737 18.3457 23.5061 18.3457 23.539V28.3182L19.9409 29.9096L21.5362 28.3182V23.539C21.5362 23.5061 21.5383 23.4737 21.5421 23.4419C21.5459 23.4095 21.5518 23.3777 21.5599 23.3464C21.5675 23.3145 21.5772 23.2838 21.589 23.2536C21.6009 23.2233 21.6144 23.1937 21.6295 23.1651C21.6446 23.1365 21.6619 23.1084 21.6802 23.082C21.6991 23.0555 21.7196 23.0301 21.7412 23.0059C21.7628 22.9816 21.786 22.9589 21.8108 22.9379C21.8351 22.9163 21.861 22.8969 21.888 22.8785C21.915 22.8607 21.943 22.844 21.9722 22.8294C22.0013 22.8148 22.031 22.8019 22.0618 22.7905C22.092 22.7797 22.1233 22.7706 22.1551 22.763C22.187 22.756 22.2188 22.7506 22.2512 22.7474C22.2836 22.7441 22.3159 22.7425 22.3489 22.7431C22.3812 22.7441 22.4136 22.7463 22.446 22.7511C22.4778 22.7555 22.5097 22.7619 22.5415 22.7706C22.5728 22.7792 22.6036 22.7895 22.6338 22.8019C22.9527 22.9303 23.2609 23.0814 23.5577 23.2541C23.855 23.4273 24.1383 23.6205 24.4076 23.8342C24.6769 24.0479 24.9295 24.2794 25.1658 24.5293C25.4017 24.7792 25.6186 25.0447 25.8161 25.3253C26.0136 25.6064 26.1901 25.9 26.3455 26.2065C26.5009 26.5125 26.6337 26.8282 26.7438 27.1536C26.8533 27.479 26.9397 27.8104 27.0017 28.1482C27.0638 28.4855 27.1016 28.826 27.1145 29.1687C27.1275 29.5119 27.1161 29.854 27.08 30.1956C27.0433 30.5367 26.9828 30.874 26.8981 31.2064C26.8134 31.5393 26.7049 31.8642 26.5732 32.181C26.4421 32.4983 26.2883 32.8043 26.1124 33.0995C25.9365 33.3947 25.7406 33.6758 25.5247 33.943C25.3083 34.2095 25.0741 34.4599 24.8215 34.6936C24.5695 34.9267 24.3019 35.141 24.0185 35.3358C23.7352 35.5311 23.4395 35.7049 23.1314 35.8571V43.7673C23.1314 43.8196 23.1265 43.8714 23.1162 43.9227C23.106 43.974 23.0909 44.0236 23.0709 44.0716C23.0504 44.1202 23.0261 44.1661 22.997 44.2093C22.9678 44.253 22.9349 44.2929 22.8977 44.3301C22.861 44.3668 22.8205 44.3997 22.7768 44.4289C22.7331 44.458 22.6872 44.4823 22.6392 44.5023C22.5906 44.5223 22.541 44.5374 22.4892 44.5476C22.4379 44.5579 22.3861 44.5633 22.3338 44.5633ZM18.3457 42.9713H21.5362V35.3428C21.5362 35.2635 21.5475 35.1863 21.5712 35.1102C21.5944 35.0347 21.6279 34.964 21.6727 34.8981C21.7169 34.8323 21.7698 34.7746 21.8319 34.7249C21.8934 34.6747 21.9609 34.6353 22.0348 34.6056C22.2668 34.5117 22.4913 34.4027 22.7088 34.2792C22.9263 34.155 23.1346 34.0174 23.3332 33.8658C23.5323 33.7136 23.7201 33.5495 23.8966 33.3725C24.073 33.1955 24.2371 33.0072 24.3887 32.8086C24.5398 32.6095 24.6775 32.4012 24.8005 32.1837C24.9241 31.9662 25.032 31.7417 25.1248 31.5097C25.2176 31.2782 25.2948 31.0407 25.3558 30.7984C25.4168 30.5561 25.4616 30.3111 25.4896 30.0629C25.5172 29.8146 25.5285 29.5658 25.5231 29.316C25.5172 29.0661 25.495 28.8179 25.4562 28.5713C25.4168 28.3247 25.3612 28.0813 25.2894 27.8422C25.2176 27.6031 25.1302 27.3695 25.0271 27.1417C24.9235 26.9145 24.8054 26.6949 24.6726 26.4828C24.5398 26.2713 24.3931 26.0695 24.2333 25.8773C24.073 25.6852 23.9009 25.505 23.7163 25.3361C23.5318 25.1672 23.337 25.0112 23.1314 24.8687V28.6479C23.1314 28.7531 23.1109 28.8546 23.0704 28.9523C23.0299 29.0494 22.9727 29.1357 22.8977 29.2102L20.5049 31.5976C20.4676 31.6343 20.4277 31.6678 20.384 31.6964C20.3403 31.7255 20.2944 31.7504 20.2458 31.7703C20.1978 31.7903 20.1476 31.8054 20.0964 31.8156C20.0451 31.8259 19.9933 31.8308 19.9409 31.8308C19.8886 31.8308 19.8368 31.8259 19.785 31.8156C19.7337 31.8054 19.6841 31.7903 19.6355 31.7703C19.5875 31.7504 19.5411 31.7255 19.4979 31.6964C19.4542 31.6678 19.4137 31.6343 19.377 31.5976L16.9842 29.2102C16.9092 29.1357 16.8514 29.0494 16.811 28.9523C16.7705 28.8546 16.7505 28.7531 16.7505 28.6479V24.8687C16.5449 25.0112 16.3501 25.1672 16.1656 25.3361C15.981 25.505 15.8088 25.6852 15.6486 25.8773C15.4883 26.0695 15.342 26.2713 15.2093 26.4834C15.076 26.6949 14.9578 26.9145 14.8547 27.1423C14.7517 27.3695 14.6637 27.6031 14.5919 27.8422C14.5202 28.0818 14.4646 28.3247 14.4257 28.5713C14.3869 28.8179 14.3642 29.0661 14.3588 29.316C14.3534 29.5658 14.3642 29.8146 14.3923 30.0629C14.4203 30.3111 14.4646 30.5566 14.5261 30.7989C14.5871 31.0407 14.6637 31.2782 14.7571 31.5102C14.8499 31.7417 14.9578 31.9668 15.0814 32.1842C15.2044 32.4012 15.342 32.6095 15.4931 32.8086C15.6448 33.0077 15.8088 33.1955 15.9853 33.3725C16.1618 33.5495 16.3496 33.7136 16.5487 33.8658C16.7473 34.0174 16.9556 34.155 17.1731 34.2792C17.3906 34.4027 17.6151 34.5117 17.8476 34.6056C17.921 34.6353 17.9885 34.6753 18.0506 34.7249C18.1121 34.7746 18.165 34.8328 18.2092 34.8981C18.254 34.964 18.2875 35.0347 18.3107 35.1102C18.3339 35.1863 18.3457 35.2635 18.3457 35.3428V42.9713Z" fill="url(#paint0_linear_1_215)"/>
<path d="M39.0843 18.3028H0.797698C0.71675 18.3028 0.637422 18.2904 0.559712 18.2666C0.482542 18.2423 0.410229 18.2073 0.343852 18.1608C0.276935 18.115 0.218653 18.0599 0.169005 17.9963C0.118818 17.9326 0.0794234 17.8624 0.0513616 17.7869C0.0227602 17.7113 0.00603101 17.6325 0.00117419 17.5521C-0.00314301 17.4712 0.00441213 17.3913 0.0243791 17.3131C0.0438065 17.2343 0.0751062 17.1609 0.117199 17.0918C0.159831 17.0227 0.211098 16.9612 0.272618 16.9083L19.4156 0.196972C19.4885 0.133293 19.57 0.0847251 19.6606 0.0507271C19.7507 0.0167291 19.8446 0 19.9412 0C20.0378 0 20.1312 0.0167291 20.2219 0.0507271C20.312 0.0847251 20.394 0.133293 20.4663 0.196972L39.6093 16.9083C39.6703 16.9612 39.7221 17.0227 39.7647 17.0918C39.8068 17.1609 39.8381 17.2343 39.8576 17.3131C39.8775 17.3913 39.8851 17.4712 39.8802 17.5516C39.8759 17.6325 39.8592 17.7108 39.8306 17.7869C39.8025 17.8624 39.7631 17.932 39.7135 17.9963C39.6633 18.0599 39.605 18.115 39.5386 18.1608C39.4717 18.2073 39.3999 18.2423 39.3222 18.2661C39.2451 18.2904 39.1657 18.3028 39.0843 18.3028ZM2.92068 16.7113H36.9618L19.9412 1.85316L2.92068 16.7113Z" fill="url(#paint1_linear_1_215)"/>
<path d="M35.0957 39.7884H22.3335C22.2811 39.7884 22.2293 39.7836 22.1781 39.7733C22.1263 39.7631 22.0766 39.7479 22.0281 39.728C21.98 39.708 21.9342 39.6832 21.8904 39.654C21.8467 39.6254 21.8063 39.5925 21.7696 39.5553C21.7323 39.5186 21.6994 39.4781 21.6703 39.435C21.6411 39.3912 21.6168 39.3454 21.5963 39.2973C21.5764 39.2488 21.5613 39.1991 21.551 39.1479C21.5407 39.0966 21.5359 39.0448 21.5359 38.9924C21.5359 38.9406 21.5407 38.8888 21.551 38.8376C21.5613 38.7863 21.5764 38.7361 21.5963 38.6881C21.6168 38.64 21.6411 38.5942 21.6703 38.5505C21.6994 38.5073 21.7323 38.4668 21.7696 38.4301C21.8063 38.3929 21.8467 38.36 21.8904 38.3308C21.9342 38.3017 21.98 38.2774 22.0281 38.2574C22.0766 38.2375 22.1263 38.2224 22.1781 38.2121C22.2293 38.2019 22.2811 38.197 22.3335 38.197H34.2981V18.3028H5.58329V38.197H17.5479C17.6002 38.197 17.652 38.2019 17.7033 38.2121C17.7546 38.2224 17.8048 38.2375 17.8528 38.2574C17.9013 38.2774 17.9472 38.3017 17.9909 38.3308C18.0341 38.36 18.0746 38.3929 18.1118 38.4301C18.1485 38.4668 18.182 38.5073 18.2111 38.5505C18.2397 38.5942 18.2645 38.64 18.2845 38.6881C18.3045 38.7361 18.3196 38.7863 18.3298 38.8376C18.3401 38.8888 18.3455 38.9406 18.3455 38.9924C18.3455 39.0448 18.3401 39.0966 18.3298 39.1479C18.3196 39.1991 18.3045 39.2488 18.2845 39.2973C18.2645 39.3454 18.2397 39.3912 18.2111 39.435C18.182 39.4781 18.1485 39.5186 18.1118 39.5553C18.0746 39.5925 18.0341 39.6254 17.9909 39.654C17.9472 39.6832 17.9013 39.708 17.8528 39.728C17.8048 39.7479 17.7546 39.7631 17.7033 39.7733C17.652 39.7836 17.6002 39.7884 17.5479 39.7884H4.78515C4.73281 39.7884 4.681 39.7836 4.62973 39.7733C4.57847 39.7631 4.52828 39.7479 4.48025 39.728C4.43168 39.708 4.38581 39.6832 4.3421 39.654C4.29893 39.6254 4.25845 39.5925 4.22122 39.5553C4.18452 39.5186 4.15106 39.4781 4.12192 39.435C4.09332 39.3912 4.0685 39.3454 4.04853 39.2973C4.02856 39.2488 4.01345 39.1991 4.0032 39.1479C3.99295 39.0966 3.98755 39.0448 3.98755 38.9924V17.5068C3.98755 17.4545 3.99295 17.4027 4.0032 17.3514C4.01345 17.3001 4.02856 17.2505 4.04853 17.2024C4.0685 17.1539 4.09332 17.108 4.12192 17.0648C4.15106 17.0211 4.18452 16.9812 4.22122 16.944C4.25845 16.9073 4.29893 16.8743 4.3421 16.8452C4.38581 16.8161 4.43168 16.7918 4.48025 16.7718C4.52828 16.7518 4.57847 16.7367 4.62973 16.7265C4.681 16.7162 4.73281 16.7114 4.78515 16.7114H35.0957C35.148 16.7114 35.1998 16.7162 35.2511 16.7265C35.3029 16.7367 35.3526 16.7518 35.4011 16.7718C35.4492 16.7918 35.4956 16.8161 35.5387 16.8452C35.5824 16.8743 35.6229 16.9073 35.6596 16.944C35.6969 16.9812 35.7298 17.0211 35.7589 17.0648C35.7881 17.108 35.8129 17.1539 35.8328 17.2024C35.8528 17.2505 35.8679 17.3001 35.8782 17.3514C35.8884 17.4027 35.8933 17.4545 35.8933 17.5068V38.9924C35.8933 39.0448 35.8884 39.0966 35.8782 39.1479C35.8679 39.1991 35.8528 39.2488 35.8328 39.2973C35.8129 39.3454 35.7881 39.3912 35.7589 39.435C35.7298 39.4781 35.6969 39.5186 35.6596 39.5553C35.6229 39.5925 35.5824 39.6254 35.5387 39.654C35.4956 39.6832 35.4492 39.708 35.4011 39.728C35.3526 39.7479 35.3029 39.7631 35.2511 39.7733C35.1998 39.7836 35.148 39.7884 35.0957 39.7884Z" fill="url(#paint2_linear_1_215)"/>
<path d="M6.38134 13.4325C6.329 13.4325 6.27665 13.4276 6.22538 13.4174C6.17412 13.4071 6.12447 13.392 6.0759 13.3721C6.02733 13.3521 5.98146 13.3273 5.93775 13.2987C5.89458 13.2695 5.85411 13.2366 5.81687 13.1994C5.78017 13.1627 5.74725 13.1222 5.71811 13.079C5.68897 13.0353 5.66415 12.9894 5.64418 12.9414C5.62421 12.8928 5.6091 12.8432 5.59885 12.7919C5.5886 12.7407 5.58374 12.6889 5.58374 12.637V2.38748C5.58374 2.33513 5.5886 2.28332 5.59885 2.23206C5.6091 2.18079 5.62421 2.13114 5.64418 2.08257C5.66415 2.03454 5.68897 1.98867 5.71811 1.94496C5.74725 1.90179 5.78017 1.86132 5.81687 1.82462C5.85411 1.78792 5.89458 1.75447 5.93775 1.72586C5.98146 1.69672 6.02733 1.6719 6.0759 1.65193C6.12447 1.63197 6.17412 1.61686 6.22538 1.6066C6.27665 1.59689 6.329 1.59149 6.38134 1.59149H11.167C11.2193 1.59149 11.2711 1.59689 11.3224 1.6066C11.3742 1.61686 11.4238 1.63197 11.4724 1.65193C11.5204 1.6719 11.5663 1.69672 11.61 1.72586C11.6537 1.75447 11.6942 1.78792 11.7309 1.82462C11.7681 1.86132 11.801 1.90179 11.8302 1.94496C11.8593 1.98867 11.8836 2.03454 11.9041 2.08257C11.9241 2.13114 11.9392 2.18079 11.9495 2.23206C11.9597 2.28332 11.9646 2.33513 11.9646 2.38748V8.45908C11.9646 8.51143 11.9597 8.56323 11.9495 8.6145C11.9392 8.66576 11.9241 8.71541 11.9041 8.76344C11.8836 8.81201 11.8593 8.85788 11.8302 8.90105C11.801 8.94476 11.7681 8.9847 11.7309 9.02193C11.6942 9.05863 11.6537 9.09155 11.61 9.12069C11.5663 9.14983 11.5204 9.17412 11.4724 9.19408C11.4238 9.21405 11.3742 9.22916 11.3224 9.23941C11.2711 9.24967 11.2193 9.25506 11.167 9.25506C11.1146 9.25506 11.0628 9.24967 11.0115 9.23941C10.9597 9.22916 10.9101 9.21405 10.8615 9.19408C10.8135 9.17412 10.7676 9.14983 10.7239 9.12069C10.6802 9.09155 10.6397 9.05863 10.603 9.02193C10.5658 8.9847 10.5329 8.94476 10.5037 8.90105C10.4746 8.85788 10.4503 8.81201 10.4298 8.76344C10.4098 8.71541 10.3947 8.66576 10.3845 8.6145C10.3742 8.56323 10.3694 8.51143 10.3694 8.45908V3.18292H7.17895V12.637C7.17895 12.6889 7.17355 12.7407 7.1633 12.7919C7.15304 12.8432 7.13793 12.8928 7.11797 12.9414C7.098 12.9894 7.07317 13.0353 7.04457 13.079C7.01543 13.1222 6.98197 13.1627 6.94528 13.1994C6.90804 13.2366 6.86757 13.2695 6.8244 13.2987C6.78068 13.3273 6.73481 13.3521 6.68625 13.3721C6.63822 13.392 6.58803 13.4071 6.53676 13.4174C6.4855 13.4276 6.43369 13.4325 6.38134 13.4325Z" fill="url(#paint3_linear_1_215)"/>
<defs>
<linearGradient id="paint0_linear_1_215" x1="11.6117" y1="24.999" x2="33.7243" y2="40.3484" gradientUnits="userSpaceOnUse">
<stop stop-color="#003A92"/>
<stop offset="1" stop-color="#74A0E3"/>
</linearGradient>
<linearGradient id="paint1_linear_1_215" x1="-3.19577" y1="1.89239" x2="11.288" y2="35.1871" gradientUnits="userSpaceOnUse">
<stop stop-color="#003A92"/>
<stop offset="1" stop-color="#74A0E3"/>
</linearGradient>
<linearGradient id="paint2_linear_1_215" x1="1.4309" y1="19.0974" x2="24.7145" y2="53.0579" gradientUnits="userSpaceOnUse">
<stop stop-color="#003A92"/>
<stop offset="1" stop-color="#74A0E3"/>
</linearGradient>
<linearGradient id="paint3_linear_1_215" x1="5.07244" y1="2.81577" x2="16.0782" y2="9.07247" gradientUnits="userSpaceOnUse">
<stop stop-color="#003A92"/>
<stop offset="1" stop-color="#74A0E3"/>
</linearGradient>
</defs>
</svg>
