<svg width="46" height="46" viewBox="0 0 46 46" fill="none" xmlns="http://www.w3.org/2000/svg">
<path d="M17.5172 7.63048L38.3565 28.4337L43.2181 23.58L22.3793 2.77726L17.5172 7.63048ZM38.3565 31.2106C38.0507 31.2106 37.7582 31.089 37.5417 30.8737L15.0734 8.4436C14.8569 8.2277 14.7354 7.93519 14.7354 7.63048C14.7354 7.32521 14.8569 7.03271 15.0734 6.8168L21.5645 0.336767C22.0146 -0.112256 22.7439 -0.112256 23.1941 0.336767L45.6624 22.7668C46.1126 23.2159 46.1126 23.9441 45.6624 24.3936L39.1713 30.8737C38.9554 31.089 38.6623 31.2106 38.3565 31.2106Z" fill="url(#paint0_linear_1_127)"/>
<path d="M37.5106 37.4608C37.3441 37.4608 37.1759 37.4253 37.0189 37.3509L18.8148 28.7651L16.0319 31.543C15.5812 31.992 14.8524 31.992 14.4023 31.543C13.9522 31.094 13.9522 30.3658 14.4023 29.9162L17.7591 26.5655C18.1033 26.2225 18.6261 26.1314 19.0657 26.339L37.2697 34.9248L42.6802 29.5233L40.7875 27.6339C40.3374 27.1843 40.3374 26.4561 40.7875 26.0071C41.2371 25.5575 41.967 25.5575 42.4166 26.0071L45.1251 28.7101C45.5747 29.1591 45.5747 29.8874 45.1251 30.3364L38.3254 37.1245C38.1045 37.3448 37.8098 37.4608 37.5106 37.4608Z" fill="url(#paint1_linear_1_127)"/>
<path d="M2.78197 41.1712L4.75734 43.1433L15.3896 32.5293L13.4142 30.5573L2.78197 41.1712ZM4.75734 45.9201C4.45152 45.9201 4.15846 45.7991 3.94255 45.5832L0.3376 41.9844C-0.112533 41.5353 -0.112533 40.8071 0.3376 40.3575L12.5994 28.1174C12.8153 27.9015 13.1084 27.7799 13.4142 27.7799C13.7195 27.7799 14.0125 27.9015 14.229 28.1174L17.8345 31.7157C18.2841 32.1652 18.2841 32.8934 17.8345 33.3425L5.57213 45.5838C5.35567 45.7991 5.06261 45.9201 4.75734 45.9201Z" fill="url(#paint2_linear_1_127)"/>
<path d="M17.5794 7.09212C17.2736 7.09212 16.9805 6.97112 16.7646 6.75521L15.8383 5.82997C15.6218 5.61406 15.5002 5.32156 15.5002 5.01629C15.5002 4.71157 15.6218 4.41907 15.8383 4.20316L18.9459 1.10052C19.1618 0.884608 19.4549 0.763611 19.7607 0.763611C19.7607 0.763611 19.7607 0.763611 19.7612 0.763611C20.0665 0.763611 20.3596 0.884608 20.576 1.10052L21.5024 2.02576C21.952 2.47478 21.952 3.20299 21.5024 3.65257L18.3948 6.75521C18.1783 6.97112 17.8852 7.09212 17.5794 7.09212Z" fill="url(#paint3_linear_1_127)"/>
<defs>
<linearGradient id="paint0_linear_1_127" x1="12.2301" y1="3.22697" x2="45.9384" y2="38.8496" gradientUnits="userSpaceOnUse">
<stop stop-color="#003A92"/>
<stop offset="1" stop-color="#74A0E3"/>
</linearGradient>
<linearGradient id="paint1_linear_1_127" x1="11.5488" y1="26.889" x2="19.6076" y2="49.5282" gradientUnits="userSpaceOnUse">
<stop stop-color="#003A92"/>
<stop offset="1" stop-color="#74A0E3"/>
</linearGradient>
<linearGradient id="paint2_linear_1_127" x1="-1.45612" y1="29.6555" x2="18.1358" y2="50.3601" gradientUnits="userSpaceOnUse">
<stop stop-color="#003A92"/>
<stop offset="1" stop-color="#74A0E3"/>
</linearGradient>
<linearGradient id="paint3_linear_1_127" x1="14.9923" y1="1.41794" x2="21.8272" y2="8.6409" gradientUnits="userSpaceOnUse">
<stop stop-color="#003A92"/>
<stop offset="1" stop-color="#74A0E3"/>
</linearGradient>
</defs>
</svg>
